<svg xmlns="http://www.w3.org/2000/svg" version="1.0" viewBox="0 0 700 848"><path d="M346.9 37.7c-.2 1-.3 15-.1 31l.3 29.3h5.8l.3-29.3c.2-16 .1-30-.1-31-.2-1.1-1.3-1.7-3.1-1.7s-2.9.6-3.1 1.7zM347.6 105.3c-2.1 1.6-1.8 4.5.7 6.1 3.7 2.3 7.7-3.5 4.1-6.1-1-.7-2.1-1.3-2.4-1.3-.3 0-1.4.6-2.4 1.3zM346.2 125.8c-1.3 2.6-8.2 18.2-15.4 34.7-16 36.8-15.8 36.5-17 36.5-.6 0-2-1.2-3.2-2.7-1.1-1.5-6.3-7.5-11.5-13.3-5.1-5.8-11.9-13.5-14.9-17.3-3.1-3.7-5.9-6.4-6.3-6-.4.5-4.2 8.4-8.4 17.7-11.9 26.4-14.3 30.9-16.3 30.1-7.1-2.7-48.7-13.5-50.2-13-3.8 1.2-3.2 4.6 4 25.4 3.9 11.2 6.9 20.7 6.8 21.1-.2.3-9.7-2.7-21.1-6.7-21.8-7.7-24.7-8-24.7-3.2 0 1.2 9.1 13.3 21.1 28.2 11.7 14.4 21.6 26.8 22.2 27.4.7.9-1.1 3.6-6.2 9.5-3.9 4.6-15.7 18.8-26.2 31.6-17.1 21.1-20.5 26.2-17.1 26.2.5 0 8.9-2 18.7-4.5 9.8-2.5 18.1-4.4 18.5-4.3.5.2-11.5 11.1-26.6 24.2-21.3 18.6-27.4 24.4-27.4 26.3 0 2.1.4 2.3 5.3 2.2 2.8 0 9.3-.4 14.2-.8 5-.4 9.3-.6 9.8-.4.4.2-6.8 7-16 14.9-20.5 17.7-22.3 19.6-21.6 22.3.6 2.5-.8 2.5 23.3.2 10.7-1.1 19.6-1.8 19.8-1.6.2.1-5.2 8.8-12 19.1-6.8 10.4-16.8 26.2-22.2 35.2-8.4 13.9-9.7 16.5-8.5 17.7 1.2 1.1 3.7 0 16.4-6.9 8.3-4.5 18.9-10.3 23.7-12.9l8.6-4.7-.8 3.2c-.5 1.8-5 18.5-10 37.1-9.3 34.9-9.6 36.7-5.1 36.7.9 0 7.9-5.2 15.5-11.5 7.6-6.4 14.1-11.4 14.3-11.1.2.2-2.7 18.4-6.4 40.4-4.9 28.9-6.5 40.4-5.7 41.2 1.1 1.1 8-7.7 16.8-21.2 1.7-2.6 3.6-4.6 4.1-4.4.6.1 3.1 12.6 5.6 27.7 2.5 15.1 4.8 28.3 5.1 29.4.4 1.5 1.4-.1 4.2-6 5.5-12 5.9-12.9 7.1-14.4.7-1 1.1 7.7 1.5 29.2.3 19.3.9 30.8 1.5 30.9.6.1 5.8-8.1 11.6-18.1 5.9-10 11-18.3 11.4-18.4.8-.2-.1-2.7 23.5 63 10.2 28.5 17.8 48.3 18.6 48.3.7 0 2.4-3 3.8-6.8 8.8-23.4 15.5-41.1 16.5-43.5 2.3-5.8 3.1-3.7 9.6 25.3 6 26.2 11.4 47.7 16.1 63.4 4.4 14.9 5 16.4 5.9 15.5 1.8-1.9 13.4-45.3 21-78.9 5.1-22.4 6.7-28.1 7.8-27.7.6.2 4.4 9.1 8.4 19.8 4.1 10.7 8.5 22.4 9.9 26.1 1.4 3.8 3.1 6.8 3.8 6.8.7 0 7.6-17.7 16.6-42.7 24-66.9 24.7-68.8 25.5-68.6.4.1 5.5 8.4 11.4 18.4 5.8 10 11.1 18.2 11.6 18.1.6-.1 1.2-11.6 1.5-30.9.4-21.5.8-30.2 1.5-29.2 1.2 1.5 1.6 2.4 7.1 14.4 2.8 5.9 3.8 7.5 4.2 6 .3-1.1 2.6-14.3 5.1-29.4 2.5-15.1 5.1-27.6 5.6-27.7.6-.2 2.4 1.8 4.1 4.4 8.8 13.5 15.7 22.3 16.8 21.2.8-.8-.8-12.3-5.7-41.2-3.7-22-6.6-40.2-6.4-40.4.2-.3 6.7 4.7 14.3 11.1 22.1 18.2 22.1 18.4 10.4-25.2-5-18.6-9.5-35.3-10-37.1l-.8-3.2 8.6 4.7c4.8 2.6 15.5 8.4 23.7 12.9 12.7 6.9 15.2 8 16.4 6.9 1.2-1.2-.1-3.8-8.5-17.7-5.4-9-15.4-24.8-22.2-35.2-6.8-10.3-12.2-19-12-19.1.2-.2 9.1.5 19.8 1.6 24.1 2.3 22.7 2.3 23.3-.2.7-2.7-1.1-4.6-21.6-22.3-9.2-7.9-16.4-14.7-16-14.9.5-.2 4.9 0 9.8.4 5 .4 11.4.8 14.3.8 4.8.1 5.2-.1 5.2-2.2 0-1.8-6.2-7.8-27.4-26.3-15.1-13.1-27.2-24.1-27-24.3.2-.2 8.7 1.8 19 4.4 13.8 3.5 18.9 4.4 19.7 3.6.8-.8.8-1.6.2-2.6-2.7-3.7-33.5-41.4-41.9-51-5.3-6.1-9.6-11.2-9.6-11.5 0-.3 9.9-12.8 22-27.7 12.1-15.1 22-28.1 22-29.2 0-4.8-2.9-4.5-24.7 3.2-11.4 4-20.9 7-21.1 6.7-.1-.4 2.9-9.9 6.8-21.1 7.2-20.8 7.7-24.2 4-25.4-1.5-.5-43.1 10.3-50.2 13-2 .8-4.4-3.7-16.3-30.1-4.2-9.3-8-17.2-8.4-17.7-.4-.4-2.3 1.2-4.2 3.5-1.9 2.4-8.6 10.2-15 17.4-6.4 7.3-12.5 14.3-13.6 15.8-1.2 1.4-2.5 2.6-3.1 2.6-1.2 0-1 .3-17-36.5-16-36.7-17.3-39.5-19.2-39.5-.8 0-2.5 2.2-3.8 4.8zm1.2 31.4c-.5 23.7-.2 21.9-16.8 83.2-5.8 21.3-10.6 39-10.6 39.2 0 2-26.7-6.1-28.3-8.6-.6-1.1 2.2-8.6 10.6-27.5 6.4-14.3 12.7-28.9 14-32.5 4.6-12.2 16.6-41.5 23.1-56.5 3.6-8.3 6.6-15.6 6.6-16.3 0-.6.4-1.2.9-1.2.6 0 .8 8 .5 20.2zm6.6-18.9c0 .8 3 8.1 6.6 16.3 3.6 8.2 10.8 25.7 16.1 38.9 5.2 13.2 14.7 35.7 21 50 8.4 18.9 11.2 26.4 10.6 27.5-1.6 2.5-28.3 10.6-28.3 8.6 0-.2-4.8-17.9-10.6-39.2-16.6-61.3-16.3-59.5-16.8-83.2-.3-12.2-.1-20.2.5-20.2.5 0 .9.6.9 1.3zm-74.7 37.9c.8 12.8 6.7 74.5 7.7 81.8.5 3.5.7 6.6.5 6.9-1.9 1.8-12.4-17.1-24.5-44.1l-4.3-9.8 7.1-16.7c4-9.3 7.2-17.1 7.2-17.5 0-1.9 4.1-9.9 4.8-9.4.5.3 1.2 4.3 1.5 8.8zm146.1-3.5c1 2.6 5 12.3 8.9 21.6l7 16.7-4.3 9.8c-12.1 27-22.6 45.9-24.5 44.1-.2-.3 0-3.4.5-6.9 1-6.9 6.8-68.4 7.6-81 .9-11.8 1.8-12.7 4.8-4.3zM294.5 184c6.4 7.7 13.7 15.8 16.2 17.9l4.4 3.9-8.2 18.9c-4.4 10.3-9.7 22.5-11.7 27-1.9 4.6-4.1 8.3-4.7 8.3-1.5 0-1.8-2.2-5-47.5-1.4-19.3-2.7-36.7-2.9-38.8-.2-2-.3-3.7-.1-3.7.1 0 5.5 6.3 12 14zm119.9 30c-1.8 23.9-3.3 44.1-3.4 44.7 0 .7-.6 1.3-1.4 1.3-.7 0-2.9-3.7-4.8-8.3-2-4.5-7.3-16.7-11.7-27l-8.2-18.9 4.5-3.9c2.5-2.2 9.8-10.3 16.2-18 6.4-7.7 11.7-13.9 11.9-13.7.1.2-1.3 19.9-3.1 43.8zm-182.1-7.5 22.1 6.1 6.1 11c8.2 14.6 20.5 38.3 20.5 39.5 0 1.8-4.8.8-17.5-3.5-22.7-7.6-41.3-14.7-42.8-16.4-2.1-2.5-15-40.8-14.4-42.6.4-1 1.3-1.3 2.3-.9.9.3 11.6 3.4 23.7 6.8zm115.7 6.1c0 11.7.1 12.4 2 12.4 1.8 0 2-.8 2.2-12.8.3-12.9 1.7-16.8 2.9-8.2.4 2.5 5 19.9 10.2 38.7 5.2 18.9 9.2 34.3 8.8 34.3-.3 0-5.4-1.7-11.3-3.7l-10.8-3.8v-15.7c0-15.1-.1-15.8-2-15.8s-2 .7-2 15.8v15.7l-10.7 3.8c-6 2-11.1 3.7-11.4 3.7-.3 0 3.8-16.1 9.2-35.8 5.4-19.6 9.9-36.9 9.9-38.3 0-1.4.3-2.9.6-3.2 1.8-1.8 2.4 1.5 2.4 12.9zm139.5 9c-3.8 11.3-7.7 21.2-8.6 22-2.8 2.6-53.2 20.4-57.6 20.4-1.3 0-2.3-.4-2.3-1 0-1.1 12-24.3 20.5-39.4l6.1-11 22-6.1c12-3.4 22.6-6.4 23.4-6.7 3.9-1.4 3.4 1.7-3.5 21.8zm-255 31.3c27 9.5 49.3 17.5 49.7 17.9.7.8-15.8 28.7-16.9 28.7-2.1-.1-15.9-3.7-16.8-4.4-.5-.5-6.8-2.7-14-5.1-15.1-4.9-12.2-2.4-35.3-30.9-22.2-27.6-20-24.5-17.7-23.9 1.1.3 24.1 8.3 51 17.7zm285.8-15.6c-9 11.4-33.9 42-36.5 44.8-2.8 3.1-5.2 4.3-16.3 7.9-7.1 2.4-13.5 4.6-14 5.1-.9.7-14.7 4.3-16.8 4.4-.4 0-4.5-6.3-9.2-14-6.4-10.7-8.1-14.2-7.1-14.9 1.6-1.1 98.5-35.4 100.4-35.5 1-.1.8.6-.5 2.2zm-218.9 40.3c5.5 1.9 10.9 3.4 12 3.4 1.2 0 1.6.4 1.1.9-1.4 1.3-39.7 15.2-40.3 14.7-.3-.3 2.8-5.7 6.9-12.1 5.4-8.4 7.8-11.4 8.9-10.9.8.3 6 2.1 11.4 4zm121.5 6.9c4.1 6.4 7.2 11.8 6.9 12.1-.6.5-38.9-13.4-40.3-14.7-.5-.5.1-.9 1.5-1 1.4 0 7.2-1.7 13-3.8 5.8-2.1 10.7-3.9 11-4 .3 0 3.8 5.1 7.9 11.4zm-72.9 5.8c0 12.6.1 13.3 2 13.3s2-.7 2-13.3c0-7.3.4-13.3.9-13.3 1.4 0 20.5 7.2 21.9 8.3.6.5 1.2 1.8 1.2 2.7 0 3.1-12.7 51.1-13.8 52.2-.7.7-2.2-.1-5-2.6-5.3-4.8-9-4.8-14.5-.1-2.5 2.2-4.4 3.2-5 2.6-1.1-1.1-13.7-49.2-13.7-52.1 0-1 .6-2.2 1.3-2.7 1.8-1.2 20-8.1 21.5-8.2.9-.1 1.2 3.2 1.2 13.2zm-51.1 36.4L279 364.5l-6.8.7c-8.4.9-21.2 6.4-23.7 10.2-1.6 2.4-4.5 3.6-4.5 1.8 0-.6 19-58.4 22.3-67.9 1.1-3 2.1-3.5 23.7-11.6 12.4-4.7 23-8.5 23.6-8.6.7-.1-6.9 16.9-16.7 37.6zm112.5-29.1c22.2 8.2 23.2 8.7 24.3 11.7 3.3 9.4 22.3 67.3 22.3 67.9 0 1.8-2.9.6-4.5-1.8-2.5-3.8-15.3-9.3-23.7-10.2l-6.8-.7-17.9-37.8c-9.8-20.7-17.6-37.7-17.3-37.7.3 0 10.9 3.9 23.6 8.6zm-181-5.2c4.5 1.4 11.4 3.4 15.4 4.6 5.3 1.5 7.2 2.5 7.2 3.8 0 1-7.8 8.2-19.2 17.6l-19.1 15.9-20.8 5.8c-20.5 5.8-23.9 6.5-23.9 5.3 0-1.2 10.5-13.6 21.3-25.3 5.8-6.3 14.1-15.6 18.4-20.7 5.8-6.9 8.4-9.3 10.2-9.3 1.4-.1 6.1 1 10.5 2.3zm263.9 7c4.3 5.1 12.6 14.4 18.4 20.7 10.8 11.7 21.3 24.1 21.3 25.3 0 1.2-3.4.5-23.9-5.3l-20.8-5.8-19.1-15.9c-11.4-9.4-19.2-16.6-19.2-17.6 0-1.3 1.9-2.3 7.3-3.8 3.9-1.2 10.6-3.2 14.7-4.5 12.2-3.8 12.3-3.8 21.3 6.9zM324 309.7c2.3 9.8 5.2 22.1 6.5 27.3l2.2 9.5-2.7 3.5c-4.5 5.9-32 45.8-32.6 47.5-.3.8-1 1.5-1.4 1.5-1.7 0-4.7-6.9-5.9-13.9-1.5-8.4-3-12.3-6.6-16.6l-2.4-3 13.6-28c7.4-15.4 15.4-31.9 17.7-36.8 6-12.8 6.6-12.4 11.6 9zm63.6-9c2.3 4.9 10.3 21.4 17.7 36.8l13.6 28-2.4 3c-3.6 4.3-5.1 8.2-6.6 16.6-1.2 7-4.2 13.9-5.9 13.9-.4 0-1.1-.7-1.4-1.5-.6-1.7-28.1-41.6-32.6-47.5l-2.7-3.5 2.2-9.5c1.3-5.2 4.2-17.5 6.5-27.3 5-21.4 5.6-21.8 11.6-9zm-124 3.6c.9.9-1.6 9.8-10.5 36.7-6.4 19.5-12 36.3-12.4 37.3-.7 1.7-.9 1.7-4-.8-1.7-1.5-4-4-5-5.6l-1.8-2.8 13.1-32.8c7.3-18 13.4-33.2 13.7-33.6.7-1.1 5.4 0 6.9 1.6zm193 31.2c7.3 18.2 13.1 33.8 12.8 34.7-.7 2.4-8.7 9.9-9.6 9-.7-.7-23.4-69.7-24-72.8-.3-1.9 3.7-4.6 6.1-4.1.9.1 6.7 13.2 14.7 33.2zm-213.9-7.6c-9.4 20.2-10.4 22-13.4 23.1-3.9 1.3-4.3 3-.8 3 1.4 0 2.5.3 2.5.7 0 .5-4 7.5-8.8 15.8l-8.7 15-4.5.3c-2.5.2-15.5 1.6-29 3.2-13.4 1.6-24.8 2.6-25.3 2.1s14.8-8.6 34-18.1c19.1-9.4 35-17.4 35.2-17.6.2-.2.1-.7-.2-1-.4-.4-12.5 5.1-26.9 12.1-32.4 15.7-36.8 17.7-36.8 16.5 0-1.2 13-12.3 48.5-41.4 31.2-25.8 36.3-29.9 40.3-33.3 1.5-1.3 3-2.3 3.4-2.3.3 0-3.9 9.8-9.5 21.9zm208.5-19.6c4 3.4 9.1 7.5 40.3 33.3 35.3 28.9 48.5 40.2 48.5 41.4 0 1.2-3.9-.5-29.5-13-30.2-14.7-33.6-16.2-34.3-15.6-.3.3-.3.8-.1 1 .2.2 16.1 8.2 35.2 17.6 19.2 9.5 34.5 17.6 34 18.1s-11.9-.5-25.3-2.1c-13.5-1.6-26.5-3-29-3.2l-4.5-.3-8.7-15c-4.8-8.3-8.8-15.3-8.8-15.8 0-.4 1.1-.7 2.5-.7 3.5 0 3.1-1.7-.8-3-3-1.1-4-2.9-13.4-23.1-5.6-12.1-9.8-21.9-9.5-21.9.4 0 1.9 1 3.4 2.3zM356.3 341c2.7 2.7 4.7 5.5 4.5 6.2-.3.7-2.7 10.2-5.3 21-2.7 10.9-5.1 19.8-5.5 19.8-.4 0-2.8-8.9-5.5-19.8-2.6-10.8-5-20.3-5.3-21-.5-1.4 8.9-11.2 10.8-11.2.7 0 3.5 2.2 6.3 5zm-14.2 40.2c3.9 15.9 7.5 28.8 7.9 28.8.4 0 4-13.2 8.1-29.3 4.1-16 7.9-29.2 8.4-29.1 1.1 0 10.8 13.4 26.7 36.8l10.1 14.8-.7 5.4c-.8 7.1-5.5 32.5-6.2 33.6-.4.5-1.1.5-1.7 0-.7-.5-6.2-3-12.3-5.5l-11.2-4.7h-42.4l-11.2 4.7c-6.1 2.5-11.6 5-12.3 5.5-.6.5-1.3.5-1.7 0-.8-1.3-5.6-27.8-6.2-34.2l-.5-5.5 15.3-22.1c18.8-27.1 20.8-29.8 21.8-28.7.5.4 4.1 13.7 8.1 29.5zm-76.2-2.2c5 5.2 9.3 5.5 14.6.9 3.7-3.3 5.8-3.2 3.7.1-1.6 2.5-1.5 3 .3 3 2.3 0 1.8 1.3-2 5-3.9 3.8-5.6 3.5-2.9-.4 2.6-4.1 1-4.1-3.4-.2-2.2 2-4.8 3.6-5.8 3.6-2 0-11.6-13.8-10.7-15.3.9-1.5 2.5-.6 6.2 3.3zm174.3-2.7c0 .5-1.9 4-4.3 7.8-2.9 4.6-5 6.9-6.3 6.9-1 0-3.6-1.6-5.8-3.6-4.4-3.9-6-3.9-3.4.2 2 2.9 1.4 4.3-.9 2.4-1.2-1-1.5-1-1.5.3 0 .8-.7 1.8-1.6 2.1-1.4.5-1.6.1-1.1-2.9.3-1.9.1-3.7-.4-4-1.7-1.1-.9-2.7 1.1-2.2 2.4.6 2.6-.5.5-2.3-1.5-1.2-2.1-4-.9-4 .4 0 2.2 1.3 4.1 3 5 4.5 9.6 4.2 14.2-.9 3.3-3.6 6.1-4.9 6.3-2.8zm-216.5 2.4c-.7 4.3-14.6 51.4-16.1 54.8-.8 1.6-1.5 3.5-1.7 4.1-.4 1.1-6 6.1-33.9 30.5-19.5 17-22 19-23 18.4-.8-.5 19.1-31.2 40.5-62.5 22.1-32.3 33.1-48 33.9-48 .4 0 .6 1.2.3 2.7zm10.2 1.8c4.9 5.3 4.8 4.6 2.6 33.5-.8 10.7-1.6 22.1-1.8 25.2-.2 3.2-.6 6-1 6.4-.3.4-4.9-1.5-10.2-4.2-8.2-4.2-9.5-5.3-9.5-7.4 0-3.4 14.1-58 15-58 .4 0 2.6 2 4.9 4.5zm244.9 23.2c4 15.3 7.2 28.9 7.2 30.3 0 2.1-1.3 3.2-9.5 7.4-5.3 2.7-9.9 4.6-10.2 4.2-.4-.4-.8-3.2-1-6.4-.2-3.1-1-14.5-1.8-25.2-2.2-28.9-2.3-28.2 2.6-33.5 2.3-2.5 4.5-4.5 4.9-4.5.4 0 3.9 12.5 7.8 27.7zm1.2-23.9c1.4 2 7.9 11.5 14.5 21 30.5 44 57.6 85 56.5 85.7-1 .6-3.5-1.4-23-18.4-27.9-24.4-33.5-29.4-33.9-30.5-.2-.6-.9-2.5-1.7-4.1-1.5-3.4-15.4-50.5-16.1-54.8-.7-3.8.8-3.4 3.7 1.1zm-219.7 2.7c4.5 9.1 3 10.2-3.8 2.7-4-4.3-4.2-4.8-2.8-6.5 2.5-2.7 3.7-2.1 6.6 3.8zm186-3.8c1.4 1.7 1.2 2.2-2.8 6.5-6.8 7.5-8.3 6.4-3.8-2.7 2.9-5.9 4.1-6.5 6.6-3.8zM249.5 382c.3.6-.1.7-.9.4-1.8-.7-2.1-1.4-.7-1.4.6 0 1.3.4 1.6 1zm203.5-.6c0 .2-.7.7-1.6 1-.8.3-1.2.2-.9-.4.6-1 2.5-1.4 2.5-.6zm-197.5 9.7c3.9 3.6 9 5.7 15.9 6.5 3.1.4 5.6 1 5.6 1.3 0 .3-5 15.9-11 34.6-6.1 18.6-11 34.5-11 35.2 0 3.5-2.6 1.2-10.1-8.9-4.6-6.2-8.3-12-8.2-12.8 0-2.7 3.4-43.4 4.3-51.9.4-4.6 1.3-8.7 2-9.1 1.8-1.1 9 1.9 12.5 5.1zm203-1.8c.2 1.8 1.1 11.7 2 22.2.8 10.4 1.8 22.6 2.2 27 .4 4.4.7 8.5.7 9-.1.6-3.8 6.1-8.3 12.3-7.4 10.1-10.1 12.4-10.1 8.9 0-.6-4.9-16.5-11-35.2-6-18.8-11-34.4-11-34.7 0-.3 2.5-.8 5.6-1.2 6.9-.8 12.1-2.9 15.7-6.4 3-2.9 10.4-6.1 12.4-5.4.7.2 1.5 1.8 1.8 3.5zm-173.7 2.2c-.2 1-.7 1.2-1.7.5-1.3-.7-1.3-1.1-.1-2.5 1.5-1.8 2.4-.8 1.8 2zm-75.8-1.3c-.1.7-1.6 3-3.4 5.1-2.8 3.1-7.9 5.9-28.8 15.4-13.9 6.3-25.7 11.9-26.2 12.4-.6.5-1.6.9-2.3.9-2.3 0-1.4-1.9 1.7-3.5 1.6-.8 10.1-7.2 18.7-14.2 8.7-6.9 16.4-13.1 17.2-13.7 1.5-1.1 13.6-3.3 19.4-3.5 2.4-.1 3.7.3 3.7 1.1zm294.3-.2c4 .6 8.1 1.5 9.2 1.9 1.1.5 9.3 6.7 18.3 14 9 7.2 17.6 13.8 19.3 14.6 3 1.6 3.9 3.5 1.6 3.5-.7 0-1.7-.4-2.3-.9-.5-.5-12.3-6.1-26.2-12.4-20.9-9.5-26-12.3-28.8-15.4-5.8-6.6-4.6-7.2 8.9-5.3zm-213.6 10.9c1.7 1.4 3.5 3.6 3.8 4.9 1 4.1 7.5 39.5 7.5 41.1 0 1.8-32.4 34.7-40.2 40.7-5.3 4.1-8.8 5.5-8.8 3.5 0-.9 16.7-57.8 23.1-78.5 2.1-7.1 4.4-13.5 4.9-14.1 1.4-1.7 6-.6 9.7 2.4zm135.2 11.6c6.4 20.9 23.1 77.7 23.1 78.6 0 2-3.5.6-8.8-3.5-7.8-6-40.2-38.9-40.2-40.7 0-1.6 6.5-37 7.5-41.2 1.2-4.6 10.5-9.7 13.2-7.3.7.6 3 6.9 5.2 14.1zm-225.5-7.7c.5.8-9.6 14.8-13.2 18.4-1.3 1.2-6.9 2.4-21.5 4.4-10.8 1.5-20 2.4-20.4 2-1.2-1.1 2.4-3 22.4-11.6 10.8-4.7 22.2-9.7 25.2-11.2 6.3-3 6.8-3.1 7.5-2zM522 413c10.2 4.5 21.2 9.3 24.5 10.7 6.8 2.8 10.2 5 9.2 5.9-.4.4-9.6-.5-20.4-2-14.6-2-20.2-3.2-21.5-4.4-3.7-3.7-13.7-17.6-13.1-18.5.3-.4 1-.6 1.7-.3.6.2 9.4 4.1 19.6 8.6zm-140.2 27.4c8.9 4.7 11.6 6.6 11.4 7.9-.2 1-2.6 6.9-5.4 13.1-5.1 11.1-5.2 11.3-9.5 12.6-4.1 1.2-4.6 1.1-6.7-.9-2.1-2-3.2-2.1-21.6-2.1-18.4 0-19.5.1-21.6 2.1-2.1 2-2.6 2.1-6.6.9-4.3-1.3-4.5-1.5-9.5-12.4-2.8-6.1-5.3-12-5.5-13.1-.2-1.6 1.8-3.1 11.2-8.1l11.5-6.1 20.3-.1H370l11.8 6.2zm-170.9 19.3 1 6.3-18.7 35.6c-10.2 19.6-18.8 35.1-19 34.5-.2-.7.7-4.5 2.1-8.4 4.4-12.5 17.8-58.9 17.3-59.5-.3-.3-9.5 4.8-20.3 11.3-10.9 6.5-20.2 12-20.8 12.3-2 1 2.4-3.1 29-26.6l27-24 .8 6.2c.4 3.3 1.1 8.9 1.6 12.3zm22.3-8.9c4.1 4 17.8 24.9 17.8 27.1 0 2.5-3 19.3-3.5 19.9-.2.2-6.8-3.9-14.7-9.1l-14.4-9.4-2.2-16.9c-3.2-23.9-3.9-22 6.6-17.3 4.8 2.2 9.5 4.8 10.4 5.7zm250.7 11-2.3 17.5-14.4 9.4c-7.9 5.2-14.5 9.3-14.7 9.1-.5-.6-3.5-17.4-3.5-19.9 0-1.4 3.6-7.5 8.8-14.9l8.7-12.5 9.5-4.6c7.6-3.7 9.6-4.3 9.9-3.1.1.8-.7 9.4-2 19zm36.6 5.2c22.6 19.9 29 25.7 27 24.8-.5-.3-9.9-5.8-20.8-12.3-10.8-6.5-20-11.6-20.3-11.3-.5.6 12.9 47 17.3 59.5 1.4 3.9 2.3 7.7 2.1 8.4-.2.6-8.8-14.9-19-34.5l-18.7-35.7.9-5.2c.5-2.9 1.2-8.5 1.5-12.5l.7-7.4 3.2 3c1.7 1.6 13.5 12 26.1 23.2zM308 458.7c3 7.3 5.9 14 6.7 15.4.2.3-1.2 1.8-3.2 3.3l-3.6 2.8-6.6-3.1c-3.6-1.7-6.8-2.9-7.1-2.6-.5.5 1.3 14.4 2 14.9.4.4 18.3 9.9 23.3 12.5 2.2 1.1 4.9 2.3 5.9 2.6 4.3 1.3-1 3-20.6 6.6l-20.3 3.7-15.5-7.2c-9.1-4.2-15.6-7.8-15.8-8.7-.2-1 2.2-3.2 6.5-6.1 4.2-2.8 13.6-11.6 24.8-23.1 9.9-10.3 18.5-18.6 19.2-18.7.6 0 2.6 3.5 4.3 7.7zm107.6 11.2c11.5 11.8 20.9 20.5 25 23.1 4.1 2.8 6.4 4.9 6.2 5.9-.2.9-6.5 4.4-15.8 8.7l-15.5 7.2-20.3-3.7c-19.6-3.6-24.9-5.3-20.6-6.6 1-.3 3.7-1.5 5.9-2.6 5-2.6 22.9-12.1 23.3-12.5.7-.5 2.5-14.4 2-14.9-.3-.3-3.5.9-7.1 2.6l-6.6 3.1-3.6-2.8c-2-1.5-3.4-3-3.2-3.3.8-1.4 3.7-8.1 6.7-15.4 1.7-4.2 3.6-7.7 4.2-7.7.6 0 9.3 8.5 19.4 18.9zm-203.1 8.4c-.4 2.4-2.8 13.3-5.5 24.3l-4.8 19.9-10.8 10.3c-13.5 12.8-17.2 15.8-18.4 14.6-.8-.8 3.7-9.5 29.2-56.7 5-9.2 9.5-16.7 10-16.7s.6 1.9.3 4.3zm285.3 12.4c25.5 47.2 30 55.9 29.2 56.7-1.2 1.2-4.9-1.8-18.4-14.6l-10.8-10.3-4.8-19.9c-5.4-22.4-6.5-28.6-5.2-28.6.5 0 5 7.5 10 16.7zM367 477.8c0 .4-3.8 2-8.5 3.6l-8.5 2.9-8.5-2.9c-4.7-1.6-8.5-3.2-8.5-3.6 0-.5 7.7-.8 17-.8 9.4 0 17 .3 17 .8zm-39.4 13.3c3.1 5.5 5.3 10.3 5 10.7-.6.6-18.4-17.5-18.6-18.8 0-.3 1.2-1.3 2.7-2.2 1.9-1.1 3.2-1.3 4-.7.6.6 3.7 5.5 6.9 11zM386 483c-.2 1.3-18 19.4-18.6 18.8-.7-.7 8.5-17.7 11.4-21 1.4-1.7 1.6-1.7 4.3-.1 1.6 1 2.9 2 2.9 2.3zm-44.6 1.6 8.6 3.6 8.8-3.6c4.8-2 9.1-3.6 9.5-3.6 1.4 0 .5 2.9-7.9 26.2-7.1 19.5-9 23.8-10.5 23.8-1.1 0-1.9-.2-1.9-.4s-3.8-10.9-8.5-23.7c-4.7-12.8-8.5-23.8-8.5-24.6 0-1.9.8-1.7 10.4 2.3zM222.7 491c2.6 3.3 5.1 6 5.6 6 .4 0 .7.7.7 1.5 0 3.3-15.3 72-16.1 72.3-.5.2-.9.8-.9 1.3 0 .6-3.8 7.4-8.4 15.2-4.6 7.8-9 15.4-9.7 16.9-.7 1.6-1.6 2.8-2 2.8-1 0-1.9 4.4 10.7-57 12.1-59.7 13.3-65 14.4-65 .4 0 3 2.7 5.7 6zm14.6 3.5 9.7 6.5v5.5c0 3-.2 5.5-.4 5.5s-5.6-5.6-12-12.5c-10.9-11.8-14.6-16.9-9.3-13.1 1.2.9 6.6 4.5 12 8.1zm238.4-6.3c-.9 1.3-6.4 7.2-12.1 13.3l-10.5 11-.1-5.8V501l8.3-5.4c4.5-3 9.7-6.6 11.6-8 4-3 5.1-2.7 2.8.6zm9.8 4c1.4 6.3 21.2 102.7 22.8 111.5.8 4-.5 4.3-2.2.5-.7-1.5-5.1-9.1-9.7-16.9-4.6-7.8-8.4-14.6-8.4-15.2 0-.5-.4-1.1-.9-1.3-.8-.3-16.1-69-16.1-72.2 0-.8.4-1.6.9-1.8.5-.2 3-2.9 5.5-6.1 2.6-3.1 5.1-5.7 5.6-5.7s1.6 3.3 2.5 7.2zM246 523.1v6.6l-13.1 16.9c-12.6 16.3-15.8 19.8-14.5 15.8.3-1.1 2.6-11.6 5.1-23.4 5-23.6 7.6-35.1 8.2-36.2.2-.4 3.5 2.5 7.3 6.5l6.9 7.2.1 6.6zm223.3-17.4c.4 1.6 3.1 14.5 6.2 28.8 3 14.3 5.8 26.8 6.1 27.8 1.3 4-1.8.7-14.5-15.7L454 529.8v-13.1l6.8-7.2c3.7-3.9 7-7 7.3-6.9.4.2.9 1.6 1.2 3.1zM268 511l16.6 8 22.5-4.5c29.6-5.9 28.1-6 30.4 1.6 1.6 5.2 1.7 6.2.4 7-1.6 1-9.9 3.6-36.1 11.3l-17.7 5.3-15.3-6.2c-8.5-3.4-15.8-6-16.4-5.8-.7.2-1.4-1.6-1.8-4.3-.8-6.1-.8-20.4.1-20.4.3 0 8.1 3.6 17.3 8zm182-.1c0 10.2-1 17.3-2.4 16.8-.6-.2-7.9 2.4-16.4 5.8l-15.3 6.2-17.7-5.3c-26.2-7.7-34.5-10.3-36.1-11.3-1.3-.8-1.2-1.8.4-7 2.3-7.6.8-7.5 30.5-1.6l22.4 4.5 16.6-8c9.1-4.4 16.8-8 17.3-8 .4 0 .7 3.5.7 7.9zm-109.8 20.6c.9 3.5 1.5 3.1-13.2 9.1-6.3 2.6-18 7.4-26 10.6l-14.5 6-6.7-1.2c-9.7-1.7-16.4-6.4-20.3-14.4-1.6-3.3-3.9-6.8-4.9-7.8-1.6-1.4-1.6-1.8-.5-2.3 1.4-.5 6.5 1.3 22.4 8.1l8 3.4 25.5-7.5c14-4.1 26.4-7.3 27.4-7.2 1.2.1 2.3 1.3 2.8 3.2zm49.4 4 25.9 7.5 8-3.4c15.9-6.8 21-8.6 22.4-8.1 1.1.5 1.1.9-.5 2.3-1 1-3.2 4.5-4.9 7.8-3.9 8-10.6 12.7-20.3 14.4-6.3 1.2-7 1.1-12.7-1.3-3.3-1.4-13.4-5.5-22.5-9.2-27.8-11.3-26.1-10.4-25.4-13.4.9-3.5 1.3-4.1 2.8-4.1.7 0 12.9 3.4 27.2 7.5zm-138.2 5c2 3.6 3.6 7.5 3.6 8.6 0 1.1-5 9.4-11 18.3l-11 16.4-.6 14.8-.6 14.9-4.5 8.2c-2.4 4.6-4.8 8.3-5.3 8.3s-1.1-1.2-1.4-2.8c-.5-2.6-5.1-37.5-6-45.7-.4-3.8.2-4.9 15.7-25.7 8.9-12 16.5-21.7 16.9-21.8.3 0 2.2 2.9 4.2 6.5zm218.3 15.3c15.5 20.8 16.1 21.9 15.7 25.7-.9 8.2-5.5 43.1-6 45.7-.3 1.6-.9 2.8-1.4 2.8-.5 0-2.9-3.7-5.3-8.3l-4.5-8.2-.6-14.9-.6-14.8-11-16.4c-6-8.9-11-17.2-11-18.3 0-2.2 6.7-15.1 7.8-15.1.4.1 8 9.8 16.9 21.8zM264 556c3.4 2.4 7.1 13.9 6.4 19.5-.5 3.5.3 5.8 6.9 18.5l7.3 14.5 7.2 3.4c5.1 2.4 7.2 4 7.2 5.3 0 1 4.3 19 9.6 40 5.2 21 9.3 38.9 9 39.8-1 3.2-17.7 47.4-18.3 48.3-.8 1.4-2-1-5.8-12.1-1.8-5.3-5.7-16.2-8.5-24.2s-7.1-20.1-9.5-27c-2.4-6.9-7.1-20.4-10.5-30-3.4-9.6-6.5-18.6-7-20-.4-1.4-4.3-12.4-8.5-24.5s-8-23.2-8.5-24.6c-.6-2.1.6-4.7 7.8-16.2 9.3-14.8 9.3-14.8 15.2-10.7zm61 0c0 3.5-1 3.8-3.4 1.1-1.7-1.8-1.7-2 .1-3 2.8-1.6 3.3-1.3 3.3 1.9zm53.1-1.9c2 1 2 1.1.3 3-2.4 2.7-3.4 2.4-3.4-1.1 0-3.3.2-3.5 3.1-1.9zm73.2 12.8c7.1 11.4 8.3 13.9 7.7 16-.5 1.4-4.3 12.5-8.5 24.6-4.2 12.1-8.1 23.1-8.5 24.5-.5 1.4-3.6 10.4-7 20s-8.1 23.1-10.5 30c-2.4 6.9-6.7 19-9.5 27s-6.7 18.9-8.5 24.2c-3.8 10.9-5 13.5-5.8 12.2-.3-.5-4.6-11.9-9.7-25.3l-9.2-24.4 9.6-38.3c5.3-21.1 9.6-39.2 9.6-40.2 0-1.3 2.1-2.9 7.2-5.3l7.2-3.4 7.4-14.5c6.6-12.9 7.3-14.9 6.8-18.7-.5-4.2 2.5-15.5 4.8-18 1.4-1.5 6.9-4.4 7.8-4 .4.1 4.5 6.2 9.1 13.6zM313.5 559c8.6 6.3 12 7.8 19.8 9 17.6 2.6 38.7.7 45.9-4.1 2.4-1.6 6.1-4.1 8.2-5.5 3.7-2.5 4.3-2.6 7.5-1.4 6.5 2.3 13.1 5.2 13.1 5.9 0 .3-13.1 13.7-29 29.6l-29 29-29.2-29.2c-16.1-16.1-28.9-29.5-28.6-29.8 1-1.1 14.2-6.4 15.8-6.4.8 0 3.3 1.3 5.5 2.9zm-32.5 2.9c-.1 1.1-4.9 6.1-5.8 6.1-1.1 0-4.2-7.1-3.6-8.1.4-.8 9.4 1.2 9.4 2zm146.5 1.8c-.8 1.9-1.5 3.7-1.5 3.9 0 2-6.9-3.7-7-5.7 0-.8 8.2-2.7 9.2-2.2.4.2.1 2-.7 4zm-109.3 29.1c15.9 15.7 28.8 29 28.8 29.5 0 .6-3.8.8-10.2.4-10.1-.5-10.5-.6-20.8-6-5.8-3-14.8-7.4-20.1-9.7-9.5-4.1-9.5-4.1-12.7-10.3-1.8-3.4-4.6-8.6-6.3-11.5-4.2-7-4-7.4 7.1-20.9.5-.6 1.9-.9 3.2-.5 1.2.3 15.2 13.4 31 29zm99.7-26.5c.6 1.2 2.7 4.1 4.6 6.5 1.9 2.4 3.5 5.1 3.5 6 0 1-2.2 5.5-4.9 10.1-2.8 4.6-5.5 9.6-6.1 11.1-.9 2.2-3.2 3.7-10.8 7-5.3 2.3-14.4 6.7-20.2 9.7-10.3 5.4-10.7 5.5-20.7 6-6.4.4-10.3.2-10.3-.4 0-1.6 56.6-57.2 59.2-58.2 2.9-1.1 4.2-.6 5.7 2.2zM247 612.6c7.2 21.8 7.9 24.8 6.8 26.9-.7 1.3-4.3 7.4-8 13.5-3.8 6.2-6.8 11.6-6.8 12 0 .4-.8 1.4-1.7 2.1-1.5 1.3-1.6 1.1-1-2 .4-1.8.7-19.9.7-40.2 0-22.6.4-36.9.9-36.9.6 0 4.6 11 9.1 24.6zm216 12.3c0 20.3.3 38.3.7 40.1.7 3.9-.8 3.5-3-.8-2.6-5-11.9-20.7-13.1-22.2-.7-.8-1.6-2.3-1.9-3.3-.8-2.1 14.9-50.7 16.4-50.7.5 0 .9 14.3.9 36.9zm-145.8-.5c6.3 3.4 7.5 3.7 18 4.3 6.4.3 11.6 1.1 12 1.7.4.6.8 9.3.8 19.3 0 17.6.1 18.3 2 18.3s2-.7 2-18.3c0-10 .4-18.7.8-19.3.4-.6 5.6-1.4 11.9-1.7l11.3-.7 10.7-5.8c6-3.3 10.9-5.6 11.1-5.2.3.8-41.4 163.8-44.6 174.5-1.1 3.4-2.4 6-3.2 6-.8 0-2.1-2.6-3.2-6-2.4-8-44.8-173.1-44.8-174.5 0-.6 1.9 0 4.3 1.3 2.3 1.3 7.2 4.1 10.9 6.1z"/><path d="M346.3 589.6c-.9 2.4 1 4.9 3.7 4.9s4.6-2.5 3.7-4.9c-.4-1-1.8-1.6-3.7-1.6-1.9 0-3.3.6-3.7 1.6zM346.4 680.4c-.3.8-.4 2.5-.2 3.8.2 1.9.9 2.3 3.8 2.3 3.3 0 3.5-.2 3.5-3.5 0-3.2-.3-3.5-3.3-3.8-2.1-.2-3.4.2-3.8 1.2zM348.5 697c-.7 1.1.4 88.1 1.1 88.9.2.2.6.2.8 0 .2-.2.5-20.4.7-44.8.3-33.1.1-44.5-.8-44.8-.6-.2-1.4.1-1.8.7zM272.9 141.1c-.8 1.6-.8 2.8 0 4.6 2.4 5.2 11.1.9 9-4.5-1.2-3.1-7.3-3.2-9-.1zM418.1 141.2c-1.1 2.8.3 5.6 3.2 6.7 4.3 1.7 7.9-2.7 5.7-6.9-1.6-3-7.8-2.8-8.9.2zM189.8 179.1c-2.2 1.2-2.4 6.2-.4 7.9 2.4 1.9 6 .8 7-2.3 1.7-4.8-2.3-8.2-6.6-5.6zM504.2 179.2c-2.7 2.7-.5 8.8 3.1 8.8 3.1 0 4.7-1.8 4.7-5.2 0-4-5.1-6.3-7.8-3.6zM152.2 214.2c-1.7 1.7-1.5 6.3.2 7.7 4.6 3.8 11.1-2.5 7.1-6.9-2-2.2-5.5-2.6-7.3-.8zM540.5 215c-2.7 2.9-1 7.4 2.8 7.8 3.6.4 5.7-1.3 5.7-4.7 0-5.1-5-6.9-8.5-3.1z"/></svg>