<svg width="32" height="32" viewBox="0 0 32 32" fill="none" xmlns="http://www.w3.org/2000/svg">
<g clip-path="url(#clip0_892_250)">
<rect width="32" height="32" fill="white"/>
<g clip-path="url(#clip1_892_250)">
<path d="M15.8646 21.3834C15.8268 21.4849 15.9066 21.5905 16.02 21.5905C16.1334 21.5905 16.2132 21.4849 16.1754 21.3834C16.1586 21.3412 16.0998 21.3158 16.02 21.3158C15.9402 21.3158 15.8814 21.3412 15.8646 21.3834ZM15.8688 25.221C15.8562 25.2548 15.852 25.3266 15.8604 25.3816C15.8688 25.4619 15.8982 25.4788 16.02 25.4788C16.1586 25.4788 16.167 25.4703 16.167 25.3309C16.167 25.1956 16.1544 25.1829 16.0284 25.1703C15.9402 25.1618 15.8856 25.1787 15.8688 25.221ZM15.957 25.9225C15.9276 25.969 15.9738 29.646 16.0032 29.6798C16.0116 29.6882 16.0284 29.6882 16.0368 29.6798C16.0452 29.6713 16.0578 28.8176 16.0662 27.7864C16.0788 26.3874 16.0704 25.9056 16.0326 25.893C16.0074 25.8845 15.9738 25.8972 15.957 25.9225ZM12.7815 2.42821C12.7479 2.49583 12.7479 2.54654 12.7815 2.62262C12.8823 2.84239 13.2477 2.66066 13.1595 2.43243C13.1091 2.30142 12.8529 2.29719 12.7815 2.42821ZM18.8804 2.43243C18.8342 2.55077 18.893 2.66911 19.0148 2.7156C19.1954 2.78745 19.3467 2.60149 19.2542 2.42398C19.187 2.29719 18.9266 2.30564 18.8804 2.43243ZM9.29099 4.03422C9.19858 4.08494 9.19018 4.29626 9.27418 4.36811C9.37499 4.44841 9.52621 4.40192 9.56821 4.2709C9.63962 4.06803 9.4716 3.92434 9.29099 4.03422ZM22.4969 4.03845C22.3835 4.15256 22.4759 4.41037 22.6271 4.41037C22.7574 4.41037 22.8246 4.3343 22.8246 4.1906C22.8246 4.02154 22.6103 3.92434 22.4969 4.03845ZM7.71165 5.51768C7.64024 5.58952 7.64864 5.78394 7.72005 5.84311C7.91327 6.00371 8.18629 5.73745 8.01828 5.55149C7.93427 5.45851 7.78726 5.4416 7.71165 5.51768ZM24.0217 5.55149C23.9083 5.67405 23.9797 5.86424 24.1393 5.88114C24.2905 5.89805 24.3787 5.8262 24.3787 5.6825C24.3787 5.46696 24.1687 5.39089 24.0217 5.55149Z" fill="black"/>
<path d="M15.8889 -1.94182C15.8805 -1.89956 15.8763 -1.30787 15.8847 -0.631652L15.8973 0.606672H16.1409L16.1535 -0.631652C16.1619 -1.30787 16.1577 -1.89956 16.1493 -1.94182C16.1409 -1.98831 16.0947 -2.01367 16.0191 -2.01367C15.9435 -2.01367 15.8973 -1.98831 15.8889 -1.94182ZM15.9183 0.915196C15.83 0.982818 15.8426 1.10538 15.9477 1.173C16.1031 1.27021 16.2711 1.02508 16.1199 0.915196C16.0779 0.885612 16.0317 0.860254 16.0191 0.860254C16.0065 0.860254 15.9603 0.885612 15.9183 0.915196ZM15.8595 1.7816C15.8048 1.89149 15.515 2.5508 15.2126 3.24815C14.5405 4.80345 14.5489 4.79077 14.4985 4.79077C14.4733 4.79077 14.4145 4.74005 14.3641 4.67666C14.3179 4.61326 14.0995 4.35968 13.8811 4.11455C13.6669 3.86942 13.3812 3.54399 13.2552 3.38339C13.125 3.22702 13.0074 3.1129 12.9906 3.12981C12.9738 3.15094 12.8142 3.48482 12.6378 3.87788C12.1379 4.99363 12.0371 5.18382 11.9531 5.15001C11.6549 5.0359 9.90754 4.57945 9.84453 4.60058C9.68492 4.6513 9.71012 4.795 10.0125 5.67408C10.1764 6.14743 10.3024 6.54894 10.2982 6.56584C10.2898 6.57852 9.89073 6.45173 9.41189 6.28267C8.49621 5.95725 8.3744 5.94457 8.3744 6.14743C8.3744 6.19815 8.75664 6.70954 9.26068 7.33926C9.75212 7.94786 10.168 8.47193 10.1932 8.49729C10.2226 8.53533 10.147 8.64944 9.93274 8.89879C9.76892 9.09321 9.27328 9.69335 8.83224 10.2343C8.11398 11.1261 7.97117 11.3416 8.11398 11.3416C8.13498 11.3416 8.48781 11.2571 8.89945 11.1514C9.31108 11.0458 9.65971 10.9655 9.67651 10.9697C9.69752 10.9782 9.19347 11.4388 8.55922 11.9925C7.66454 12.7786 7.40832 13.0237 7.40832 13.104C7.40832 13.1928 7.42512 13.2012 7.63094 13.197C7.74855 13.197 8.02157 13.1801 8.22739 13.1632C8.43741 13.1463 8.61802 13.1378 8.63903 13.1463C8.65583 13.1547 8.3534 13.4421 7.96697 13.776C7.10589 14.5241 7.03029 14.6044 7.05969 14.7185C7.08489 14.8242 7.02609 14.8242 8.03837 14.7269C8.48781 14.6805 8.86164 14.6509 8.87005 14.6593C8.87845 14.6635 8.65163 15.0312 8.366 15.4666C8.08038 15.9061 7.66034 16.5739 7.43352 16.9542C7.08069 17.5417 7.02609 17.6516 7.07649 17.7023C7.12689 17.7488 7.2319 17.7023 7.76535 17.4107C8.11398 17.2205 8.55922 16.9754 8.76084 16.8655L9.12207 16.6668L9.08846 16.8021C9.06746 16.8782 8.87845 17.584 8.66843 18.3701C8.27779 19.8451 8.26519 19.9211 8.45421 19.9211C8.49201 19.9211 8.78604 19.7014 9.10527 19.4351C9.42449 19.1646 9.69752 18.9533 9.70592 18.966C9.71432 18.9744 9.59251 19.7436 9.43709 20.6734C9.23128 21.8949 9.16407 22.3809 9.19767 22.4147C9.24388 22.4612 9.5337 22.0893 9.90333 21.5187C9.97474 21.4088 10.0545 21.3243 10.0755 21.3327C10.1008 21.337 10.2058 21.8653 10.3108 22.5034C10.4158 23.1416 10.5124 23.6995 10.525 23.746C10.5418 23.8094 10.5838 23.7418 10.7014 23.4924C10.9324 22.9853 10.9492 22.9472 10.9996 22.8838C11.029 22.8416 11.0458 23.2093 11.0626 24.1179C11.0752 24.9336 11.1004 25.4196 11.1256 25.4239C11.1508 25.4281 11.3693 25.0815 11.6129 24.6589C11.8607 24.2363 12.0749 23.8855 12.0917 23.8812C12.1253 23.8728 12.0875 23.7671 13.0788 26.5438C13.5072 27.7484 13.8265 28.5852 13.8601 28.5852C13.8895 28.5852 13.9609 28.4584 14.0197 28.2978C14.3893 27.3088 14.6707 26.5608 14.7128 26.4593C14.8094 26.2142 14.843 26.3029 15.116 27.5286C15.368 28.6359 15.5948 29.5446 15.7922 30.2081C15.9771 30.8378 16.0023 30.9012 16.0401 30.8632C16.1157 30.7829 16.6029 28.9487 16.9221 27.5286C17.1364 26.5819 17.2036 26.341 17.2498 26.3579C17.275 26.3663 17.4346 26.7425 17.6026 27.1947C17.7748 27.6469 17.9596 28.1414 18.0184 28.2978C18.0772 28.4584 18.1486 28.5852 18.1781 28.5852C18.2075 28.5852 18.4973 27.8371 18.8753 26.7805C19.8834 23.9531 19.9128 23.8728 19.9464 23.8812C19.9632 23.8855 20.1774 24.2363 20.4252 24.6589C20.6689 25.0815 20.8915 25.4281 20.9125 25.4239C20.9377 25.4196 20.9629 24.9336 20.9755 24.1179C20.9923 23.2093 21.0091 22.8416 21.0385 22.8838C21.0889 22.9472 21.1057 22.9853 21.3367 23.4924C21.4543 23.7418 21.4963 23.8094 21.5131 23.746C21.5257 23.6995 21.6223 23.1416 21.7274 22.5034C21.8324 21.8653 21.9416 21.337 21.9626 21.3327C21.9878 21.3243 22.0634 21.4088 22.1348 21.5187C22.5044 22.0893 22.7943 22.4612 22.8405 22.4147C22.8741 22.3809 22.8069 21.8949 22.601 20.6734C22.4456 19.7436 22.3238 18.9744 22.3322 18.966C22.3406 18.9533 22.6136 19.1646 22.9329 19.4351C23.8611 20.2043 23.8611 20.2128 23.3697 18.3701C23.1597 17.584 22.9707 16.8782 22.9497 16.8021L22.9161 16.6668L23.2773 16.8655C23.4789 16.9754 23.9283 17.2205 24.2728 17.4107C24.8062 17.7023 24.9112 17.7488 24.9616 17.7023C25.012 17.6516 24.9574 17.5417 24.6046 16.9542C24.3778 16.5739 23.9578 15.9061 23.6721 15.4666C23.3865 15.0312 23.1597 14.6635 23.1681 14.6593C23.1765 14.6509 23.5503 14.6805 23.9998 14.7269C25.012 14.8242 24.9532 14.8242 24.9784 14.7185C25.0078 14.6044 24.9322 14.5241 24.0712 13.776C23.6847 13.4421 23.3823 13.1547 23.3991 13.1463C23.4201 13.1378 23.6049 13.1463 23.8107 13.1632C24.0208 13.1801 24.2896 13.197 24.4114 13.197C24.613 13.2012 24.6298 13.1928 24.6298 13.104C24.6298 13.0279 24.3694 12.7744 23.4789 11.9925C22.8447 11.4388 22.3364 10.9739 22.3448 10.9655C22.3532 10.957 22.7102 11.0416 23.1429 11.1514C23.7225 11.2994 23.9367 11.3374 23.9704 11.3036C24.004 11.2698 24.004 11.236 23.9788 11.1937C23.8653 11.0373 22.5716 9.44399 22.2188 9.03826C21.9962 8.78045 21.8156 8.56491 21.8156 8.55223C21.8156 8.53955 22.2314 8.01126 22.7396 7.38153C23.2479 6.74335 23.6637 6.19392 23.6637 6.14743C23.6637 5.94457 23.5419 5.95725 22.6262 6.28267C22.1474 6.45173 21.7484 6.57852 21.74 6.56584C21.7358 6.54894 21.8618 6.14743 22.0256 5.67408C22.328 4.795 22.349 4.6513 22.1936 4.60058C22.1306 4.57945 20.3832 5.0359 20.085 5.15001C20.001 5.18382 19.9002 4.99363 19.4004 3.87788C19.2239 3.48482 19.0643 3.15094 19.0475 3.12981C19.0307 3.1129 18.9509 3.18053 18.8711 3.27773C18.7913 3.37916 18.5099 3.70882 18.2411 4.01312C17.9722 4.32164 17.716 4.61749 17.6698 4.68088C17.6194 4.74005 17.5648 4.79077 17.5396 4.79077C17.4892 4.79077 17.4976 4.80345 16.8255 3.24815C16.1535 1.69707 16.0989 1.57874 16.0191 1.57874C15.9855 1.57874 15.9141 1.67172 15.8595 1.7816ZM15.9099 3.10868C15.8889 4.11033 15.9015 4.03425 15.2042 6.62501C14.9606 7.52522 14.759 8.27329 14.759 8.28174C14.759 8.36627 13.6375 8.02394 13.5703 7.91828C13.5451 7.87179 13.6627 7.55481 14.0155 6.75603C14.2843 6.15166 14.5489 5.53461 14.6035 5.38246C14.7968 4.86684 15.3008 3.62852 15.5738 2.99457C15.725 2.64378 15.851 2.33525 15.851 2.30567C15.851 2.28031 15.8679 2.25495 15.8889 2.25495C15.9141 2.25495 15.9225 2.59306 15.9099 3.10868ZM16.1871 2.3099C16.1871 2.34371 16.3131 2.65223 16.4643 2.99879C16.6155 3.34535 16.9179 4.08497 17.1406 4.64285C17.359 5.20073 17.758 6.15166 18.0226 6.75603C18.3755 7.55481 18.4931 7.87179 18.4679 7.91828C18.4007 8.02394 17.2792 8.36627 17.2792 8.28174C17.2792 8.27329 17.0776 7.52522 16.8339 6.62501C16.1367 4.03425 16.1493 4.11033 16.1283 3.10868C16.1157 2.59306 16.1241 2.25495 16.1493 2.25495C16.1703 2.25495 16.1871 2.28031 16.1871 2.3099ZM13.0494 3.91169C13.083 4.45266 13.3308 7.06033 13.3728 7.36885C13.3938 7.51677 13.4022 7.64779 13.3938 7.66047C13.314 7.73654 12.873 6.93776 12.3647 5.79664L12.1841 5.38246L12.4824 4.67666C12.6504 4.28361 12.7848 3.95395 12.7848 3.93704C12.7848 3.85674 12.957 3.51863 12.9864 3.53977C13.0074 3.55245 13.0368 3.7215 13.0494 3.91169ZM19.1861 3.76376C19.2281 3.87365 19.3962 4.28361 19.56 4.67666L19.854 5.38246L19.6734 5.79664C19.1651 6.93776 18.7241 7.73654 18.6443 7.66047C18.6359 7.64779 18.6443 7.51677 18.6653 7.36885C18.7073 7.07723 18.9509 4.47802 18.9845 3.9455C19.0223 3.44679 19.0601 3.40875 19.1861 3.76376ZM13.6879 4.24134C13.9567 4.56677 14.2633 4.90911 14.3683 4.99786L14.5531 5.16269L14.2087 5.96147C14.0239 6.39679 13.8013 6.9124 13.7173 7.10259C13.6375 7.297 13.5451 7.45338 13.5198 7.45338C13.4568 7.45338 13.4442 7.3604 13.3098 5.44586C13.251 4.63017 13.1964 3.89478 13.188 3.80603C13.1796 3.7215 13.1754 3.64965 13.1838 3.64965C13.188 3.64965 13.4148 3.91591 13.6879 4.24134ZM18.7241 5.50925C18.6485 6.51935 18.5855 7.37308 18.5813 7.39843C18.5813 7.42802 18.5561 7.45338 18.5225 7.45338C18.4931 7.45338 18.4007 7.297 18.3209 7.10259C18.2369 6.9124 18.0142 6.39679 17.8294 5.96147L17.485 5.16269L17.674 4.99786C17.779 4.90488 18.0856 4.56255 18.3545 4.23712C18.6233 3.91169 18.8459 3.64965 18.8543 3.6581C18.8585 3.66656 18.7997 4.49915 18.7241 5.50925ZM11.0752 5.19227L12.0035 5.45008L12.2597 5.91498C12.6042 6.53203 13.1208 7.53368 13.1208 7.58439C13.1208 7.66047 12.9192 7.61821 12.3857 7.43647C11.4323 7.11527 10.651 6.8152 10.588 6.74335C10.4998 6.63769 9.95794 5.01899 9.98314 4.94292C9.99994 4.90066 10.0377 4.88798 10.0798 4.90488C10.1176 4.91756 10.567 5.04858 11.0752 5.19227ZM15.9351 5.45008C15.9351 5.94457 15.9393 5.97415 16.0191 5.97415C16.0947 5.97415 16.1031 5.94034 16.1115 5.43318C16.1241 4.88798 16.1829 4.72315 16.2333 5.08661C16.2501 5.19227 16.4433 5.92766 16.6617 6.72222C16.8801 7.521 17.0482 8.17186 17.0314 8.17186C17.0188 8.17186 16.8045 8.10001 16.5567 8.01548L16.1031 7.85488V7.19134C16.1031 6.55316 16.0989 6.52358 16.0191 6.52358C15.9393 6.52358 15.9351 6.55316 15.9351 7.19134V7.85488L15.4856 8.01548C15.2336 8.10001 15.0194 8.17186 15.0068 8.17186C14.9942 8.17186 15.1664 7.49141 15.3932 6.65882C15.62 5.83045 15.809 5.09929 15.809 5.04012C15.809 4.98096 15.8216 4.91756 15.8342 4.90488C15.9099 4.82881 15.9351 4.96828 15.9351 5.45008ZM21.7946 5.83045C21.6349 6.30803 21.4711 6.72644 21.4333 6.76025C21.3157 6.87014 19.1987 7.62243 19.0139 7.62243C18.9593 7.62243 18.9173 7.60553 18.9173 7.58017C18.9173 7.53368 19.4214 6.55316 19.7784 5.91498L20.0346 5.45008L20.9587 5.19227C21.4627 5.04858 21.908 4.92179 21.9416 4.90911C22.1054 4.84994 22.0844 4.98096 21.7946 5.83045ZM11.0836 7.15331C12.2177 7.55481 13.1544 7.89292 13.1712 7.90982C13.2006 7.94363 12.5076 9.12279 12.4614 9.12279C12.3731 9.11856 11.7935 8.96641 11.7557 8.93683C11.7347 8.9157 11.4701 8.82272 11.1676 8.72129C10.5334 8.51419 10.6552 8.61985 9.68492 7.41534C8.75243 6.24886 8.84484 6.37988 8.94145 6.40524C8.98766 6.41792 9.95374 6.75603 11.0836 7.15331ZM23.0883 6.49399C22.7102 6.9758 21.6644 8.26907 21.5551 8.3874C21.4375 8.51842 21.3367 8.56914 20.8705 8.72129C20.5723 8.82272 20.3034 8.9157 20.2824 8.93683C20.2446 8.96641 19.665 9.11856 19.5768 9.12279C19.56 9.12279 19.3878 8.85653 19.1903 8.5311C18.9215 8.07888 18.8501 7.93096 18.8921 7.90137C18.9593 7.85488 23.0295 6.40524 23.1093 6.40101C23.1513 6.39679 23.1429 6.42637 23.0883 6.49399ZM13.8937 8.19722C14.1247 8.27752 14.3515 8.34091 14.3977 8.34091C14.4481 8.34091 14.4649 8.35782 14.4439 8.37895C14.3851 8.43389 12.7764 9.02136 12.7512 9.00022C12.7386 8.98755 12.8688 8.75932 13.041 8.48884C13.2678 8.13382 13.3686 8.00703 13.4148 8.02816C13.4484 8.04084 13.6669 8.11692 13.8937 8.19722ZM18.9971 8.48884C19.1693 8.75932 19.2995 8.98755 19.2869 9.00022C19.2617 9.02136 17.653 8.43389 17.5942 8.37895C17.5732 8.35782 17.5984 8.34091 17.6572 8.33669C17.716 8.33669 17.9596 8.26484 18.2033 8.17608C18.4469 8.08733 18.6527 8.01126 18.6653 8.00703C18.6779 8.00703 18.8249 8.22257 18.9971 8.48884ZM15.9351 8.73396C15.9351 9.26649 15.9393 9.29607 16.0191 9.29607C16.0989 9.29607 16.1031 9.26649 16.1031 8.73396C16.1031 8.42544 16.1199 8.17186 16.1409 8.17186C16.1997 8.17186 17.0019 8.47616 17.0608 8.52265C17.086 8.54378 17.1112 8.59872 17.1112 8.63676C17.1112 8.76778 16.5777 10.7964 16.5315 10.8429C16.5021 10.8725 16.4391 10.8387 16.3215 10.733C16.0989 10.5302 15.9435 10.5302 15.7124 10.7288C15.6074 10.8218 15.5276 10.8641 15.5024 10.8387C15.4562 10.7922 14.927 8.75932 14.927 8.63676C14.927 8.59449 14.9522 8.54378 14.9816 8.52265C15.0572 8.47193 15.8216 8.18031 15.8847 8.17608C15.9225 8.17186 15.9351 8.31133 15.9351 8.73396ZM13.7887 10.2724L13.0368 11.8699L12.7512 11.8995C12.3984 11.9375 11.8607 12.17 11.7557 12.3306C11.6885 12.432 11.5667 12.4827 11.5667 12.4067C11.5667 12.3813 12.3647 9.93848 12.5034 9.53697C12.5496 9.41018 12.5916 9.38905 13.4988 9.04672C14.0197 8.84808 14.4649 8.68747 14.4901 8.68325C14.5195 8.67902 14.2003 9.3975 13.7887 10.2724ZM18.5141 9.04249C19.4466 9.38905 19.4886 9.41018 19.5348 9.53697C19.6734 9.93425 20.4714 12.3813 20.4714 12.4067C20.4714 12.4827 20.3496 12.432 20.2824 12.3306C20.1774 12.17 19.6398 11.9375 19.2869 11.8995L19.0013 11.8699L18.2495 10.2724C17.8378 9.3975 17.5102 8.67902 17.5228 8.67902C17.5354 8.67902 17.9806 8.84385 18.5141 9.04249ZM10.9114 8.82272C11.1004 8.88189 11.3903 8.96641 11.5583 9.01713C11.7809 9.08053 11.8607 9.12279 11.8607 9.17773C11.8607 9.22 11.5331 9.52429 11.0542 9.92157L10.252 10.5936L9.37829 10.8387C8.51721 11.0838 8.3744 11.1134 8.3744 11.0627C8.3744 11.012 8.81544 10.4879 9.26908 9.99342C9.5127 9.72716 9.86133 9.33411 10.0419 9.11856C10.2856 8.82694 10.3948 8.72551 10.4704 8.72551C10.5292 8.72129 10.7266 8.76778 10.9114 8.82272ZM21.9962 9.11856C22.1768 9.33411 22.5254 9.72716 22.769 9.99342C23.2227 10.4879 23.6637 11.012 23.6637 11.0627C23.6637 11.1134 23.5209 11.0838 22.6598 10.8387L21.7862 10.5936L20.9839 9.92157C20.5051 9.52429 20.1774 9.22 20.1774 9.17773C20.1774 9.12279 20.2572 9.08053 20.484 9.01713C20.6479 8.96641 20.9293 8.88189 21.1015 8.82694C21.6139 8.66634 21.6181 8.66634 21.9962 9.11856ZM14.927 9.55388C15.0236 9.96806 15.1454 10.4879 15.2 10.7077L15.2924 11.1092L15.179 11.2571C14.99 11.5065 13.8349 13.1928 13.8097 13.2646C13.7971 13.2984 13.7677 13.328 13.7509 13.328C13.6795 13.328 13.5535 13.0364 13.503 12.7406C13.44 12.3855 13.377 12.2207 13.2258 12.039L13.125 11.9122L13.6963 10.7288C14.0071 10.0779 14.3431 9.3806 14.4397 9.17351C14.6917 8.63253 14.717 8.64944 14.927 9.55388ZM17.5984 9.17351C17.695 9.3806 18.031 10.0779 18.3419 10.7288L18.9131 11.9122L18.8123 12.039C18.6611 12.2207 18.5981 12.3855 18.5351 12.7406C18.4847 13.0364 18.3587 13.328 18.2873 13.328C18.2705 13.328 18.2411 13.2984 18.2285 13.2646C18.2033 13.1928 17.0482 11.5065 16.8591 11.2571L16.7457 11.1092L16.8381 10.7077C16.8927 10.4879 17.0145 9.96806 17.1112 9.55388C17.3212 8.64944 17.3464 8.63253 17.5984 9.17351ZM12.39 9.32565C12.4278 9.36369 12.3227 9.73984 11.9489 10.8767C11.6801 11.7009 11.4449 12.4109 11.4281 12.4532C11.3987 12.525 11.3903 12.525 11.2601 12.4194C11.1886 12.356 11.092 12.2503 11.05 12.1827L10.9744 12.0643L11.5247 10.6781C11.8313 9.91735 12.0875 9.27494 12.1001 9.25803C12.1295 9.21154 12.3269 9.25803 12.39 9.32565ZM20.4967 10.6443C20.8033 11.4135 21.0469 12.0728 21.0343 12.1108C21.0049 12.2123 20.6689 12.5292 20.6311 12.4912C20.6017 12.4616 19.6482 9.54543 19.623 9.41441C19.6104 9.33411 19.7784 9.21999 19.8792 9.24113C19.917 9.24535 20.1606 9.79901 20.4967 10.6443ZM11.5121 10.3231C11.1172 11.1768 11.0752 11.2529 10.9492 11.2994C10.7854 11.3543 10.7686 11.4262 10.9156 11.4262C10.9744 11.4262 11.0206 11.4388 11.0206 11.4557C11.0206 11.4769 10.8526 11.7727 10.651 12.1235L10.2856 12.7575L10.0966 12.7701C9.99154 12.7786 9.44549 12.8378 8.87845 12.9054C8.3156 12.973 7.83676 13.0153 7.81575 12.9941C7.79475 12.973 8.43741 12.6307 9.24388 12.2292C10.0461 11.8319 10.714 11.4938 10.7224 11.4853C10.7308 11.4769 10.7266 11.4557 10.714 11.4431C10.6972 11.4262 10.189 11.6586 9.58411 11.9545C8.22319 12.618 8.03837 12.7025 8.03837 12.6518C8.03837 12.6011 8.58442 12.132 10.0755 10.9021C11.3861 9.81169 11.6003 9.63841 11.7683 9.49471C11.8313 9.43977 11.8943 9.3975 11.9111 9.3975C11.9237 9.3975 11.7473 9.81169 11.5121 10.3231ZM20.2698 9.49471C20.4378 9.63841 20.6521 9.81169 21.9626 10.9021C23.4453 12.1235 23.9998 12.6011 23.9998 12.6518C23.9998 12.7025 23.8359 12.6307 22.7606 12.1024C21.4921 11.4811 21.3493 11.4177 21.3199 11.4431C21.3073 11.4557 21.3073 11.4769 21.3157 11.4853C21.3241 11.4938 21.992 11.8319 22.7942 12.2292C23.6007 12.6307 24.2434 12.973 24.2224 12.9941C24.2014 13.0153 23.7225 12.973 23.1597 12.9054C22.5926 12.8378 22.0466 12.7786 21.9416 12.7701L21.7526 12.7575L21.3871 12.1235C21.1855 11.7727 21.0175 11.4769 21.0175 11.4557C21.0175 11.4388 21.0637 11.4262 21.1225 11.4262C21.2695 11.4262 21.2527 11.3543 21.0889 11.2994C20.9629 11.2529 20.9209 11.1768 20.5261 10.3231C20.2908 9.81169 20.1144 9.3975 20.127 9.3975C20.1438 9.3975 20.2068 9.43977 20.2698 9.49471ZM16.2837 10.8767C16.3971 10.9908 16.4811 11.1092 16.4727 11.1388C16.4601 11.1683 16.3593 11.5699 16.2501 12.0263C16.1367 12.487 16.0359 12.8631 16.0191 12.8631C16.0023 12.8631 15.9015 12.487 15.788 12.0263C15.6788 11.5699 15.578 11.1683 15.5654 11.1388C15.5444 11.0796 15.9393 10.6654 16.0191 10.6654C16.0485 10.6654 16.1661 10.7584 16.2837 10.8767ZM15.6872 12.5757C15.851 13.2477 16.0023 13.7929 16.0191 13.7929C16.0359 13.7929 16.1871 13.235 16.3593 12.5546C16.5315 11.8784 16.6911 11.3205 16.7121 11.3247C16.7583 11.3247 17.1658 11.8911 17.8336 12.88L18.2579 13.5055L18.2285 13.7337C18.1949 14.0338 17.9974 15.1073 17.968 15.1538C17.9512 15.1749 17.9218 15.1749 17.8966 15.1538C17.8672 15.1327 17.6362 15.027 17.38 14.9214L16.9095 14.7227H15.1286L14.6581 14.9214C14.4019 15.027 14.1709 15.1327 14.1415 15.1538C14.1163 15.1749 14.0869 15.1749 14.0701 15.1538C14.0365 15.0989 13.8349 13.9789 13.8097 13.7084L13.7887 13.4759L14.4313 12.5419C15.221 11.3966 15.305 11.2825 15.347 11.329C15.368 11.3459 15.5192 11.908 15.6872 12.5757ZM12.4866 12.4827C12.6966 12.7025 12.8772 12.7152 13.0998 12.5208C13.2552 12.3813 13.3434 12.3855 13.2552 12.525C13.188 12.6307 13.1922 12.6518 13.2678 12.6518C13.3644 12.6518 13.3434 12.7067 13.1838 12.8631C13.02 13.0237 12.9486 13.011 13.062 12.8462C13.1712 12.6729 13.104 12.6729 12.9192 12.8378C12.8268 12.9223 12.7176 12.9899 12.6756 12.9899C12.5916 12.9899 12.1883 12.4067 12.2261 12.3433C12.2639 12.2799 12.3311 12.3179 12.4866 12.4827ZM19.8078 12.3686C19.8078 12.3898 19.728 12.5377 19.6272 12.6983C19.5054 12.8927 19.4172 12.9899 19.3626 12.9899C19.3205 12.9899 19.2113 12.9223 19.1189 12.8378C18.9341 12.6729 18.8669 12.6729 18.9761 12.8462C19.0601 12.9688 19.0349 13.0279 18.9383 12.9476C18.8879 12.9054 18.8753 12.9054 18.8753 12.9603C18.8753 12.9941 18.8459 13.0364 18.8081 13.0491C18.7493 13.0702 18.7409 13.0533 18.7619 12.9265C18.7745 12.8462 18.7661 12.7701 18.7451 12.7575C18.6737 12.711 18.7073 12.6433 18.7913 12.6645C18.8921 12.6898 18.9005 12.6433 18.8123 12.5673C18.7493 12.5166 18.7241 12.3982 18.7745 12.3982C18.7913 12.3982 18.8669 12.4532 18.9467 12.525C19.1567 12.7152 19.35 12.7025 19.5432 12.487C19.6818 12.3348 19.7994 12.2799 19.8078 12.3686ZM10.714 12.4701C10.6846 12.6518 10.1008 14.6424 10.0377 14.7861C10.0041 14.8537 9.97474 14.934 9.96634 14.9594C9.94954 15.0059 9.71432 15.2172 8.54242 16.2484C7.72335 16.9669 7.61834 17.0514 7.57633 17.0261C7.54273 17.005 8.3786 15.7075 9.27748 14.3846C10.2058 13.0195 10.6678 12.356 10.7014 12.356C10.7182 12.356 10.7266 12.4067 10.714 12.4701ZM11.1424 12.5461C11.3483 12.7701 11.3441 12.7406 11.2517 13.962C11.218 14.4142 11.1844 14.896 11.176 15.027C11.1676 15.1623 11.1508 15.2806 11.134 15.2975C11.1214 15.3144 10.9282 15.2341 10.7056 15.12C10.3612 14.9425 10.3066 14.896 10.3066 14.8072C10.3066 14.6635 10.8988 12.356 10.9366 12.356C10.9534 12.356 11.0458 12.4405 11.1424 12.5461ZM21.4291 13.5267C21.5971 14.1733 21.7316 14.7481 21.7316 14.8072C21.7316 14.896 21.677 14.9425 21.3325 15.12C21.1099 15.2341 20.9167 15.3144 20.9041 15.2975C20.8873 15.2806 20.8705 15.1623 20.8621 15.027C20.8537 14.896 20.8201 14.4142 20.7865 13.962C20.6941 12.7406 20.6899 12.7701 20.8957 12.5461C20.9923 12.4405 21.0847 12.356 21.1015 12.356C21.1183 12.356 21.2653 12.8843 21.4291 13.5267ZM21.4795 12.5166C21.5383 12.6011 21.8114 13.0026 22.0886 13.4041C23.3697 15.2637 24.508 16.9965 24.4618 17.0261C24.4198 17.0514 24.3148 16.9669 23.4957 16.2484C22.3238 15.2172 22.0886 15.0059 22.0718 14.9594C22.0634 14.934 22.034 14.8537 22.0004 14.7861C21.9374 14.6424 21.3535 12.6518 21.3241 12.4701C21.2947 12.3095 21.3577 12.3264 21.4795 12.5166ZM12.2513 12.6307C12.4404 13.0153 12.3773 13.0618 12.0917 12.7448C11.9237 12.563 11.9153 12.5419 11.9741 12.4701C12.0791 12.356 12.1295 12.3813 12.2513 12.6307ZM20.064 12.4701C20.1228 12.5419 20.1144 12.563 19.9464 12.7448C19.6608 13.0618 19.5978 13.0153 19.7868 12.6307C19.9086 12.3813 19.959 12.356 20.064 12.4701ZM11.7977 12.6095C11.8103 12.6349 11.7935 12.6391 11.7599 12.6264C11.6843 12.5969 11.6717 12.5673 11.7305 12.5673C11.7557 12.5673 11.7851 12.5842 11.7977 12.6095ZM20.3454 12.5842C20.3454 12.5926 20.316 12.6138 20.2782 12.6264C20.2446 12.6391 20.2278 12.6349 20.2404 12.6095C20.2656 12.5673 20.3454 12.5504 20.3454 12.5842ZM12.0497 12.9941C12.2135 13.1463 12.4278 13.235 12.7176 13.2688C12.8478 13.2858 12.9528 13.3111 12.9528 13.3238C12.9528 13.3365 12.7428 13.9958 12.4908 14.7861C12.2345 15.5722 12.0287 16.2442 12.0287 16.2738C12.0287 16.4217 11.9195 16.3245 11.6045 15.8976C11.4113 15.6356 11.2559 15.3905 11.2601 15.3567C11.2601 15.2426 11.4029 13.5224 11.4407 13.1632C11.4575 12.9688 11.4953 12.7955 11.5247 12.7786C11.6003 12.7321 11.9027 12.8589 12.0497 12.9941ZM20.5765 12.9181C20.5849 12.9941 20.6227 13.4125 20.6605 13.8563C20.6941 14.2959 20.7361 14.8115 20.7529 14.9974C20.7697 15.1834 20.7823 15.3567 20.7823 15.3778C20.7781 15.4032 20.6227 15.6356 20.4336 15.8976C20.1228 16.3245 20.0094 16.4217 20.0094 16.2738C20.0094 16.2484 19.8036 15.5764 19.5474 14.7861C19.2953 13.9916 19.0853 13.3322 19.0853 13.3196C19.0853 13.3069 19.1903 13.2858 19.3205 13.2688C19.6104 13.235 19.8288 13.1463 19.98 12.9984C20.106 12.8758 20.4168 12.7406 20.5009 12.7701C20.5303 12.7786 20.5639 12.8462 20.5765 12.9181ZM13.2804 13.011C13.272 13.0533 13.251 13.0618 13.209 13.0322C13.1544 13.0026 13.1544 12.9857 13.2048 12.9265C13.2678 12.8504 13.3056 12.8927 13.2804 13.011ZM10.0966 12.9561C10.0924 12.9857 10.0293 13.0829 9.95374 13.1716C9.83613 13.3027 9.62191 13.421 8.74403 13.8225C8.16018 14.0888 7.66454 14.3254 7.64354 14.3466C7.61834 14.3677 7.57633 14.3846 7.54693 14.3846C7.45032 14.3846 7.48813 14.3043 7.61834 14.2367C7.68554 14.2029 8.04257 13.9324 8.4038 13.6365C8.76924 13.3449 9.09266 13.0829 9.12627 13.0575C9.18927 13.011 9.69752 12.9181 9.94114 12.9096C10.0419 12.9054 10.0966 12.9223 10.0966 12.9561ZM22.4582 12.9476C22.6262 12.973 22.7985 13.011 22.8447 13.0279C22.8909 13.0491 23.2353 13.3111 23.6133 13.6196C23.9914 13.9239 24.3526 14.2029 24.424 14.2367C24.55 14.3043 24.5878 14.3846 24.4912 14.3846C24.4618 14.3846 24.4198 14.3677 24.3946 14.3466C24.3736 14.3254 23.8779 14.0888 23.2941 13.8225C22.4162 13.421 22.202 13.3027 22.0844 13.1716C21.8408 12.8927 21.8912 12.8673 22.4582 12.9476ZM13.4862 13.4083C13.5577 13.4675 13.6333 13.5605 13.6459 13.6154C13.6879 13.7887 13.9609 15.2848 13.9609 15.3524C13.9609 15.4285 12.6 16.819 12.2723 17.0726C12.0497 17.2459 11.9027 17.305 11.9027 17.2205C11.9027 17.1825 12.6042 14.7777 12.873 13.9028C12.9612 13.6027 13.0578 13.3322 13.0788 13.3069C13.1376 13.235 13.3308 13.2815 13.4862 13.4083ZM19.1651 13.8986C19.434 14.7819 20.1354 17.1825 20.1354 17.2205C20.1354 17.305 19.9884 17.2459 19.7658 17.0726C19.4382 16.819 18.0772 15.4285 18.0772 15.3524C18.0772 15.2848 18.3503 13.7887 18.3923 13.6112C18.4427 13.4168 18.8333 13.2012 18.9467 13.3027C18.9761 13.328 19.0727 13.5943 19.1651 13.8986ZM9.69332 13.5731C9.71432 13.607 9.29008 14.1986 9.13887 14.3508C9.08426 14.4015 8.84904 14.4522 8.23579 14.5368C7.78215 14.6002 7.39572 14.6382 7.37892 14.6213C7.32851 14.5748 7.47972 14.4945 8.3198 14.131C8.77344 13.9324 9.25228 13.7211 9.37829 13.6577C9.64291 13.5309 9.66391 13.5267 9.69332 13.5731ZM23.2437 13.9197C23.6721 14.1099 24.1342 14.3128 24.2728 14.3719C24.5584 14.4903 24.7012 14.5832 24.6592 14.6213C24.6424 14.6382 24.256 14.6002 23.8023 14.5368C23.1891 14.4522 22.9539 14.4015 22.8993 14.3508C22.7438 14.1944 22.3238 13.607 22.349 13.5689C22.3616 13.552 22.391 13.5436 22.4204 13.5562C22.4456 13.5647 22.8153 13.7295 23.2437 13.9197ZM17.3548 15.0777C17.7286 15.2764 17.842 15.3567 17.8336 15.4116C17.8252 15.4539 17.7244 15.7032 17.6068 15.9653C17.3926 16.4344 17.3884 16.4428 17.2078 16.4978C17.0356 16.5485 17.0146 16.5443 16.9263 16.4598C16.8381 16.3752 16.7919 16.371 16.0191 16.371C15.2462 16.371 15.2 16.3752 15.1118 16.4598C15.0236 16.5443 15.0026 16.5485 14.8346 16.4978C14.6539 16.4428 14.6455 16.4344 14.4355 15.9737C14.3179 15.7159 14.2129 15.4666 14.2045 15.4201C14.1961 15.3524 14.2801 15.289 14.6749 15.0777L15.158 14.8199L16.0107 14.8157H16.8591L17.3548 15.0777ZM10.1764 15.8934L10.2184 16.1597L9.43289 17.6643C9.00446 18.4926 8.64323 19.1477 8.63482 19.1224C8.62642 19.0928 8.66423 18.9322 8.72303 18.7673C8.90785 18.2391 9.4707 16.278 9.4497 16.2527C9.43709 16.24 9.05066 16.4555 8.59702 16.7302C8.13918 17.005 7.74855 17.2374 7.72335 17.2501C7.63934 17.2923 7.82415 17.1191 8.94145 16.1259L10.0755 15.1115L10.1092 15.3736C10.126 15.513 10.1554 15.7497 10.1764 15.8934ZM11.113 15.5173C11.2853 15.6863 11.8607 16.5696 11.8607 16.6626C11.8607 16.7683 11.7347 17.4783 11.7137 17.5037C11.7053 17.5121 11.4281 17.3388 11.0962 17.1191L10.4914 16.7218L10.399 16.0075C10.2646 14.9974 10.2352 15.0777 10.6762 15.2764C10.8778 15.3694 11.0752 15.4792 11.113 15.5173ZM21.6433 15.9822L21.5467 16.7218L20.9419 17.1191C20.6101 17.3388 20.3328 17.5121 20.3244 17.5037C20.3034 17.4783 20.1774 16.7683 20.1774 16.6626C20.1774 16.6034 20.3286 16.3456 20.5471 16.0329L20.9125 15.5046L21.3115 15.3102C21.6307 15.1538 21.7148 15.1284 21.7274 15.1792C21.7316 15.213 21.698 15.5764 21.6433 15.9822ZM23.1807 16.2019C24.13 17.043 24.3988 17.2881 24.3148 17.2501C24.2938 17.2374 23.8989 17.005 23.4411 16.7302C22.9875 16.4555 22.601 16.24 22.5884 16.2527C22.5674 16.278 23.1303 18.2391 23.3151 18.7673C23.3739 18.9322 23.4117 19.0928 23.4033 19.1224C23.3949 19.1477 23.0337 18.4926 22.6052 17.6643L21.8198 16.1555L21.8576 15.9357C21.8786 15.8131 21.908 15.5764 21.9206 15.4074L21.95 15.0946L22.0844 15.2214C22.1558 15.2891 22.6514 15.7286 23.1807 16.2019ZM14.2549 15.8512C14.3809 16.1597 14.5027 16.4428 14.5363 16.502C14.5447 16.5147 14.4859 16.5781 14.4019 16.6415L14.2507 16.7598L13.9735 16.6288C13.8223 16.557 13.6879 16.5062 13.6753 16.5189C13.6543 16.5401 13.7299 17.1275 13.7593 17.1486C13.7761 17.1656 14.5279 17.5671 14.738 17.6769C14.8304 17.7234 14.9438 17.7742 14.9858 17.7868C15.1664 17.8418 14.9438 17.9136 14.1205 18.0658L13.2678 18.2221L12.6168 17.9178C12.2345 17.7403 11.9615 17.5882 11.9531 17.5502C11.9447 17.5079 12.0455 17.4149 12.2261 17.2923C12.4026 17.174 12.7974 16.8021 13.2678 16.3161C13.6837 15.8807 14.0449 15.53 14.0743 15.5257C14.0995 15.5257 14.1835 15.6737 14.2549 15.8512ZM18.7745 16.3245C19.2575 16.8232 19.6524 17.1909 19.8246 17.3008C19.9968 17.4191 20.0934 17.5079 20.085 17.5502C20.0766 17.5882 19.812 17.7361 19.4214 17.9178L18.7703 18.2221L17.9176 18.0658C17.0944 17.9136 16.8717 17.8418 17.0524 17.7868C17.0944 17.7742 17.2078 17.7234 17.3002 17.6769C17.5102 17.5671 18.2621 17.1656 18.2789 17.1486C18.3083 17.1275 18.3839 16.5401 18.3629 16.5189C18.3503 16.5062 18.2159 16.557 18.0646 16.6288L17.7874 16.7598L17.6362 16.6415C17.5522 16.5781 17.4934 16.5147 17.5018 16.502C17.5354 16.4428 17.6572 16.1597 17.7832 15.8512C17.8546 15.6737 17.9344 15.5257 17.9596 15.5257C17.9848 15.5257 18.3503 15.885 18.7745 16.3245ZM10.2436 16.6795C10.2268 16.781 10.126 17.2416 10.0125 17.7065L9.81093 18.5476L9.35729 18.9829C8.79024 19.5239 8.63482 19.6507 8.58442 19.5999C8.55082 19.5661 8.73983 19.1984 9.81093 17.2036C10.0209 16.8148 10.21 16.4978 10.231 16.4978C10.252 16.4978 10.2562 16.5781 10.2436 16.6795ZM22.2272 17.2036C23.2983 19.1984 23.4873 19.5661 23.4537 19.5999C23.4033 19.6507 23.2479 19.5239 22.6808 18.9829L22.2272 18.5476L22.0256 17.7065C21.7988 16.7598 21.7526 16.4978 21.8072 16.4978C21.8282 16.4978 22.0172 16.8148 22.2272 17.2036ZM16.7331 16.6584C16.7331 16.6753 16.5735 16.7429 16.3761 16.8105L16.0191 16.9331L15.662 16.8105C15.4646 16.7429 15.305 16.6753 15.305 16.6584C15.305 16.6373 15.6284 16.6246 16.0191 16.6246C16.4139 16.6246 16.7331 16.6373 16.7331 16.6584ZM15.0782 17.2205C15.2084 17.4529 15.3008 17.6558 15.2882 17.6727C15.263 17.6981 14.5153 16.9331 14.5069 16.8782C14.5069 16.8655 14.5573 16.8232 14.6203 16.7852C14.7001 16.7387 14.7548 16.7302 14.7884 16.7556C14.8136 16.781 14.9438 16.988 15.0782 17.2205ZM17.5312 16.8782C17.5228 16.9331 16.7751 17.6981 16.7499 17.6727C16.7205 17.6431 17.107 16.9247 17.2288 16.7852C17.2876 16.7133 17.296 16.7133 17.4094 16.781C17.4766 16.8232 17.5312 16.8655 17.5312 16.8782ZM15.6578 16.9458L16.0191 17.0979L16.3887 16.9458C16.5903 16.8613 16.7709 16.7936 16.7877 16.7936C16.8465 16.7936 16.8087 16.9162 16.4559 17.9009C16.1577 18.7251 16.0779 18.9068 16.0149 18.9068C15.9687 18.9068 15.9351 18.8984 15.9351 18.8899C15.9351 18.8815 15.7754 18.4292 15.578 17.8883C15.3806 17.3473 15.221 16.8824 15.221 16.8486C15.221 16.7683 15.2546 16.7767 15.6578 16.9458ZM10.672 17.2163C10.7812 17.3557 10.8862 17.4699 10.9072 17.4699C10.924 17.4699 10.9366 17.4994 10.9366 17.5332C10.9366 17.6727 10.294 20.5762 10.2604 20.5889C10.2394 20.5974 10.2226 20.6227 10.2226 20.6438C10.2226 20.6692 10.0629 20.9566 9.86973 21.2863C9.67652 21.6159 9.4917 21.9371 9.4623 22.0005C9.43289 22.0681 9.39509 22.1188 9.37829 22.1188C9.33629 22.1188 9.29848 22.3048 9.82773 19.7098C10.336 17.1867 10.3864 16.9627 10.4326 16.9627C10.4494 16.9627 10.5586 17.0768 10.672 17.2163ZM11.2853 17.3642L11.6927 17.6389V17.8714C11.6927 17.9981 11.6843 18.1038 11.6759 18.1038C11.6675 18.1038 11.4407 17.8671 11.1718 17.5755C10.714 17.0768 10.5586 16.8613 10.7812 17.0219C10.8316 17.0599 11.0584 17.212 11.2853 17.3642ZM21.2989 17.0979C21.2611 17.1529 21.0301 17.4022 20.7907 17.66L20.3496 18.1249L20.3454 17.8798V17.6389L20.6941 17.4107C20.8831 17.2839 21.1015 17.1317 21.1813 17.0726C21.3493 16.9458 21.3955 16.9585 21.2989 17.0979ZM21.7106 17.267C21.7694 17.5332 22.601 21.6075 22.6682 21.9794C22.7018 22.1484 22.6472 22.1611 22.5758 22.0005C22.5464 21.9371 22.3616 21.6159 22.1684 21.2863C21.9752 20.9566 21.8156 20.6692 21.8156 20.6438C21.8156 20.6227 21.7988 20.5974 21.7778 20.5889C21.7442 20.5762 21.1015 17.6727 21.1015 17.5375C21.1015 17.5037 21.1183 17.4699 21.1393 17.4614C21.1603 17.4529 21.2653 17.3388 21.3703 17.2036C21.4795 17.0726 21.5845 16.9627 21.6055 16.9627C21.6265 16.9627 21.6728 17.1022 21.7106 17.267ZM11.6507 18.5729V18.8519L11.1004 19.5661C10.5712 20.255 10.4368 20.4029 10.4914 20.2339C10.504 20.1874 10.6006 19.7436 10.7056 19.2449C10.9156 18.2475 11.0248 17.7615 11.05 17.715C11.0584 17.6981 11.197 17.8206 11.3567 17.9897L11.6465 18.294L11.6507 18.5729ZM21.0301 17.8375C21.0469 17.9052 21.1603 18.4504 21.2905 19.0547C21.4165 19.6591 21.5341 20.1874 21.5467 20.2297C21.6013 20.3987 21.4711 20.2592 20.9377 19.5661L20.3874 18.8561V18.3024L20.6731 17.9981C20.8285 17.8333 20.9671 17.7023 20.9797 17.7065C20.9965 17.715 21.0175 17.7742 21.0301 17.8375ZM12.5748 18.0615L13.272 18.3997L14.2171 18.2095C15.4604 17.9601 15.3974 17.9559 15.494 18.2771C15.5612 18.4969 15.5654 18.5391 15.5108 18.5729C15.4436 18.6152 15.095 18.7251 13.9945 19.0505L13.251 19.2745L12.6084 19.0125C12.2513 18.8688 11.9447 18.7589 11.9195 18.7673C11.8901 18.7758 11.8607 18.6997 11.8439 18.5856C11.8103 18.3278 11.8103 17.7234 11.8481 17.7234C11.8607 17.7234 12.1883 17.8756 12.5748 18.0615ZM20.2194 18.0573C20.2194 18.4884 20.1774 18.7885 20.1186 18.7673C20.0934 18.7589 19.7868 18.8688 19.4298 19.0125L18.7871 19.2745L18.0436 19.0505C16.9431 18.7251 16.5945 18.6152 16.5273 18.5729C16.4727 18.5391 16.4769 18.4969 16.5441 18.2771C16.6407 17.9559 16.5777 17.9601 17.8252 18.2095L18.7661 18.3997L19.4634 18.0615C19.8456 17.8756 20.169 17.7234 20.19 17.7234C20.2068 17.7234 20.2194 17.8714 20.2194 18.0573ZM15.6074 18.9279C15.6452 19.0759 15.6704 19.059 15.053 19.3125C14.7884 19.4224 14.2969 19.6253 13.9609 19.7605L13.3518 20.0141L13.0704 19.9634C12.663 19.8916 12.3815 19.6929 12.2177 19.3548C12.1505 19.2153 12.0539 19.0674 12.0119 19.0252C11.9447 18.966 11.9447 18.9491 11.9909 18.9279C12.0497 18.9068 12.2639 18.9829 12.9318 19.2703L13.2678 19.414L14.3389 19.097C14.927 18.9237 15.4478 18.7885 15.4898 18.7927C15.5402 18.7969 15.5864 18.8476 15.6074 18.9279ZM17.6824 19.097L18.7703 19.414L19.1063 19.2703C19.7742 18.9829 19.9884 18.9068 20.0472 18.9279C20.0934 18.9491 20.0934 18.966 20.0262 19.0252C19.9842 19.0674 19.8918 19.2153 19.8204 19.3548C19.6566 19.6929 19.3752 19.8916 18.9677 19.9634C18.7031 20.0141 18.6737 20.0099 18.4343 19.9085C18.2957 19.8493 17.8714 19.676 17.4892 19.5196C16.3215 19.0421 16.3929 19.0801 16.4223 18.9533C16.4601 18.8054 16.4769 18.78 16.5399 18.78C16.5693 18.78 17.0818 18.9237 17.6824 19.097ZM11.8775 19.3083C11.9615 19.4605 12.0287 19.6253 12.0287 19.6718C12.0287 19.7183 11.8187 20.0691 11.5667 20.4452L11.1046 21.1383L11.0794 21.7638L11.0542 22.3936L10.8652 22.7401C10.7644 22.9345 10.6636 23.0909 10.6426 23.0909C10.6216 23.0909 10.5964 23.0402 10.5838 22.9726C10.5628 22.8627 10.3696 21.3877 10.3318 21.0411C10.315 20.8805 10.3402 20.834 10.9912 19.955C11.3651 19.4478 11.6843 19.0378 11.7011 19.0336C11.7137 19.0336 11.7935 19.1562 11.8775 19.3083ZM21.0469 19.955C21.698 20.834 21.7232 20.8805 21.7064 21.0411C21.6686 21.3877 21.4753 22.8627 21.4543 22.9726C21.4417 23.0402 21.4165 23.0909 21.3955 23.0909C21.3745 23.0909 21.2737 22.9345 21.1729 22.7401L20.9839 22.3936L20.9587 21.7638L20.9335 21.1383L20.4714 20.4452C20.2194 20.0691 20.0094 19.7183 20.0094 19.6718C20.0094 19.5788 20.2908 19.0336 20.337 19.0336C20.3538 19.0378 20.6731 19.4478 21.0469 19.955ZM12.4068 19.9634C12.5496 20.0648 12.705 20.5509 12.6756 20.7875C12.6546 20.9355 12.6882 21.0327 12.9654 21.5694L13.272 22.1822L13.5745 22.3259C13.7887 22.4274 13.8769 22.495 13.8769 22.5499C13.8769 22.5922 14.0575 23.3529 14.2801 24.2405C14.4985 25.128 14.6707 25.8845 14.6581 25.9226C14.6161 26.0578 13.9147 27.9259 13.8895 27.9639C13.8559 28.0231 13.8055 27.9216 13.6459 27.4525C13.5703 27.2285 13.4064 26.7678 13.2888 26.4297C13.1712 26.0916 12.9906 25.5802 12.8898 25.2886C12.789 24.997 12.5916 24.4264 12.4488 24.0207C12.3059 23.615 12.1757 23.2346 12.1547 23.1754C12.1379 23.1163 11.9741 22.6514 11.7977 22.14C11.6213 21.6286 11.4617 21.1595 11.4407 21.1003C11.4155 21.0115 11.4659 20.9017 11.7683 20.4156C12.1589 19.7901 12.1589 19.7901 12.4068 19.9634ZM14.969 19.9634C14.969 20.1113 14.927 20.124 14.8262 20.0099C14.7548 19.9338 14.7548 19.9254 14.8304 19.8831C14.948 19.8155 14.969 19.8282 14.969 19.9634ZM17.1994 19.8831C17.2834 19.9254 17.2834 19.9296 17.212 20.0099C17.1112 20.124 17.0692 20.1113 17.0692 19.9634C17.0692 19.8239 17.0776 19.8155 17.1994 19.8831ZM20.274 20.4241C20.5723 20.9059 20.6227 21.0115 20.5975 21.1003C20.5765 21.1595 20.4168 21.6286 20.2404 22.14C20.064 22.6514 19.9002 23.1163 19.8834 23.1754C19.8624 23.2346 19.7322 23.615 19.5894 24.0207C19.4466 24.4264 19.2491 24.997 19.1483 25.2886C19.0475 25.5802 18.8669 26.0916 18.7493 26.4297C18.6317 26.7678 18.4679 27.2285 18.3923 27.4525C18.2327 27.9132 18.1823 28.0231 18.1486 27.9681C18.136 27.947 17.9554 27.4652 17.7412 26.8989L17.3548 25.8676L17.758 24.2489C17.9806 23.3572 18.1612 22.5922 18.1612 22.5499C18.1612 22.495 18.2495 22.4274 18.4637 22.3259L18.7661 22.1822L19.0769 21.5694C19.3542 21.0242 19.3836 20.9397 19.3626 20.7791C19.3416 20.6016 19.4676 20.124 19.5642 20.0183C19.623 19.955 19.854 19.8324 19.8918 19.8493C19.9086 19.8535 20.0808 20.1113 20.274 20.4241ZM14.4859 20.0902C14.8472 20.3565 14.99 20.4199 15.3176 20.4706C16.0569 20.5805 16.9431 20.5002 17.2456 20.2973C17.3464 20.2297 17.5018 20.124 17.59 20.0648C17.7454 19.9592 17.7706 19.955 17.905 20.0057C18.1781 20.1029 18.4553 20.2254 18.4553 20.255C18.4553 20.2677 17.905 20.834 17.2372 21.506L16.0191 22.7317L14.7926 21.4976C14.1163 20.8171 13.5787 20.2508 13.5913 20.2381C13.6333 20.1916 14.1877 19.9676 14.2549 19.9676C14.2885 19.9676 14.3935 20.0226 14.4859 20.0902ZM13.1208 20.2128C13.1166 20.2593 12.915 20.4706 12.8772 20.4706C12.831 20.4706 12.7008 20.1705 12.726 20.1282C12.7428 20.0944 13.1208 20.179 13.1208 20.2128ZM19.2743 20.2888C19.2407 20.3691 19.2113 20.4452 19.2113 20.4537C19.2113 20.5382 18.9215 20.2973 18.9173 20.2128C18.9173 20.179 19.2617 20.0987 19.3037 20.1198C19.3205 20.1282 19.3079 20.2043 19.2743 20.2888ZM14.6833 21.5187C15.3512 22.1822 15.8931 22.7444 15.8931 22.7655C15.8931 22.7908 15.7334 22.7993 15.4646 22.7824C15.0404 22.7613 15.0236 22.757 14.5909 22.5288C14.3473 22.402 13.9693 22.2161 13.7467 22.1188C13.3476 21.9456 13.3476 21.9456 13.2132 21.6835C13.1376 21.5398 13.02 21.3201 12.9486 21.1975C12.7722 20.9017 12.7806 20.8848 13.2468 20.3142C13.2678 20.2888 13.3266 20.2762 13.3812 20.2931C13.4316 20.3057 14.0197 20.8594 14.6833 21.5187ZM18.8711 20.3987C18.8963 20.4494 18.9845 20.572 19.0643 20.6734C19.1441 20.7749 19.2113 20.889 19.2113 20.927C19.2113 20.9693 19.1189 21.1595 19.0055 21.3539C18.8879 21.5483 18.7745 21.7596 18.7493 21.823C18.7115 21.916 18.6149 21.9794 18.2957 22.1188C18.073 22.2161 17.6908 22.402 17.4472 22.5288C17.0145 22.757 16.9977 22.7613 16.5777 22.7824C16.3089 22.7993 16.1451 22.7908 16.1451 22.7655C16.1451 22.6979 18.5225 20.348 18.6317 20.3057C18.7535 20.2593 18.8081 20.2804 18.8711 20.3987ZM11.6927 22.3555C11.9951 23.2769 12.0245 23.4037 11.9783 23.4924C11.9489 23.5474 11.7977 23.8052 11.6423 24.063C11.4827 24.325 11.3567 24.5532 11.3567 24.5701C11.3567 24.587 11.3231 24.6293 11.2853 24.6589C11.2222 24.7138 11.218 24.7054 11.2433 24.5744C11.2601 24.4983 11.2727 23.7333 11.2727 22.8754C11.2727 21.9202 11.2895 21.3158 11.3105 21.3158C11.3357 21.3158 11.5037 21.7807 11.6927 22.3555ZM20.7655 22.8754C20.7655 23.7333 20.7781 24.4941 20.7949 24.5701C20.8243 24.735 20.7613 24.7181 20.6689 24.5363C20.5597 24.325 20.169 23.6615 20.1186 23.5981C20.0892 23.5643 20.0514 23.5009 20.0388 23.4586C20.0052 23.3699 20.6647 21.3158 20.7277 21.3158C20.7487 21.3158 20.7655 21.9202 20.7655 22.8754ZM14.6413 22.8542C14.906 22.9979 14.9564 23.0106 15.3974 23.036C15.6662 23.0487 15.8847 23.0825 15.9015 23.1078C15.9183 23.1332 15.9351 23.5009 15.9351 23.9235C15.9351 24.6673 15.9393 24.6969 16.0191 24.6969C16.0989 24.6969 16.1031 24.6673 16.1031 23.9235C16.1031 23.5009 16.1199 23.1332 16.1367 23.1078C16.1535 23.0825 16.3719 23.0487 16.6365 23.036L17.1112 23.0064L17.5606 22.7613C17.8126 22.6218 18.0184 22.5246 18.0268 22.5415C18.0394 22.5753 16.2879 29.4643 16.1535 29.9165C16.1073 30.0602 16.0527 30.1701 16.0191 30.1701C15.9855 30.1701 15.9309 30.0602 15.8847 29.9165C15.7838 29.5784 14.0029 22.6007 14.0029 22.5415C14.0029 22.5161 14.0827 22.5415 14.1835 22.5964C14.2801 22.6514 14.4859 22.7697 14.6413 22.8542Z" fill="black"/>
</g>
</g>
<defs>
<clipPath id="clip0_892_250">
<rect width="32" height="32" fill="white"/>
</clipPath>
<clipPath id="clip1_892_250">
<rect width="18" height="33" fill="white" transform="translate(7 -2)"/>
</clipPath>
</defs>
</svg>
